<?xml version="1.0" encoding="UTF-8"?>
<!--Generator: Apple Native CoreSVG 175-->
<!DOCTYPE svg
PUBLIC "-//W3C//DTD SVG 1.1//EN"
       "http://www.w3.org/Graphics/SVG/1.1/DTD/svg11.dtd">
<svg version="1.1" xmlns="http://www.w3.org/2000/svg" xmlns:xlink="http://www.w3.org/1999/xlink" width="3300" height="2200">
 <!--glyph: "uni100AFA.medium", point size: 100.0, font version: "17.0d12e1", template writer version: "65.1"-->
 <g id="Notes">
  <rect height="2200" id="artboard" style="fill:white;opacity:1" width="3300" x="0" y="0"/>
  <line style="fill:none;stroke:black;opacity:1;stroke-width:0.5;" x1="263" x2="3036" y1="292" y2="292"/>
  <text style="stroke:none;fill:black;font-family:sans-serif;font-size:13;font-weight:bold;" transform="matrix(1 0 0 1 263 322)">Weight/Scale Variations</text>
  <text style="stroke:none;fill:black;font-family:sans-serif;font-size:13;text-anchor:middle;" transform="matrix(1 0 0 1 559.711 322)">Ultralight</text>
  <text style="stroke:none;fill:black;font-family:sans-serif;font-size:13;text-anchor:middle;" transform="matrix(1 0 0 1 856.422 322)">Thin</text>
  <text style="stroke:none;fill:black;font-family:sans-serif;font-size:13;text-anchor:middle;" transform="matrix(1 0 0 1 1153.13 322)">Light</text>
  <text style="stroke:none;fill:black;font-family:sans-serif;font-size:13;text-anchor:middle;" transform="matrix(1 0 0 1 1449.84 322)">Regular</text>
  <text style="stroke:none;fill:black;font-family:sans-serif;font-size:13;text-anchor:middle;" transform="matrix(1 0 0 1 1746.56 322)">Medium</text>
  <text style="stroke:none;fill:black;font-family:sans-serif;font-size:13;text-anchor:middle;" transform="matrix(1 0 0 1 2043.27 322)">Semibold</text>
  <text style="stroke:none;fill:black;font-family:sans-serif;font-size:13;text-anchor:middle;" transform="matrix(1 0 0 1 2339.98 322)">Bold</text>
  <text style="stroke:none;fill:black;font-family:sans-serif;font-size:13;text-anchor:middle;" transform="matrix(1 0 0 1 2636.69 322)">Heavy</text>
  <text style="stroke:none;fill:black;font-family:sans-serif;font-size:13;text-anchor:middle;" transform="matrix(1 0 0 1 2933.4 322)">Black</text>
  <line style="fill:none;stroke:black;opacity:1;stroke-width:0.5;" x1="263" x2="3036" y1="1903" y2="1903"/>
  <g transform="matrix(1 0 0 1 263 1933)">
   <path d="M9.24805 0.830078Q10.8691 0.830078 12.2949 0.214844Q13.7207-0.400391 14.8096-1.49414Q15.8984-2.58789 16.5186-4.01367Q17.1387-5.43945 17.1387-7.05078Q17.1387-8.66211 16.5186-10.0879Q15.8984-11.5137 14.8047-12.6074Q13.7109-13.7012 12.2852-14.3164Q10.8594-14.9316 9.23828-14.9316Q7.62695-14.9316 6.20117-14.3164Q4.77539-13.7012 3.69141-12.6074Q2.60742-11.5137 1.9873-10.0879Q1.36719-8.66211 1.36719-7.05078Q1.36719-5.43945 1.9873-4.01367Q2.60742-2.58789 3.69629-1.49414Q4.78516-0.400391 6.21094 0.214844Q7.63672 0.830078 9.24805 0.830078ZM9.24805-0.654297Q7.91992-0.654297 6.7627-1.14746Q5.60547-1.64062 4.73145-2.51953Q3.85742-3.39844 3.36426-4.56055Q2.87109-5.72266 2.87109-7.05078Q2.87109-8.37891 3.35938-9.54102Q3.84766-10.7031 4.72168-11.582Q5.5957-12.4609 6.75293-12.9541Q7.91016-13.4473 9.23828-13.4473Q10.5762-13.4473 11.7334-12.9541Q12.8906-12.4609 13.7695-11.582Q14.6484-10.7031 15.1465-9.54102Q15.6445-8.37891 15.6445-7.05078Q15.6445-5.72266 15.1514-4.56055Q14.6582-3.39844 13.7842-2.51953Q12.9102-1.64062 11.748-1.14746Q10.5859-0.654297 9.24805-0.654297ZM5.6543-7.05078Q5.6543-6.72852 5.85938-6.52832Q6.06445-6.32812 6.40625-6.32812L8.51562-6.32812L8.51562-4.20898Q8.51562-3.88672 8.71094-3.67676Q8.90625-3.4668 9.23828-3.4668Q9.56055-3.4668 9.77051-3.67676Q9.98047-3.88672 9.98047-4.20898L9.98047-6.32812L12.0898-6.32812Q12.4219-6.32812 12.627-6.52832Q12.832-6.72852 12.832-7.05078Q12.832-7.38281 12.627-7.58789Q12.4219-7.79297 12.0898-7.79297L9.98047-7.79297L9.98047-9.90234Q9.98047-10.2344 9.77051-10.4443Q9.56055-10.6543 9.23828-10.6543Q8.90625-10.6543 8.71094-10.4443Q8.51562-10.2344 8.51562-9.90234L8.51562-7.79297L6.40625-7.79297Q6.06445-7.79297 5.85938-7.58789Q5.6543-7.38281 5.6543-7.05078Z"/>
  </g>
  <g transform="matrix(1 0 0 1 281.867 1933)">
   <path d="M11.709 2.91016Q13.75 2.91016 15.5518 2.12891Q17.3535 1.34766 18.7305-0.0292969Q20.1074-1.40625 20.8887-3.20801Q21.6699-5.00977 21.6699-7.05078Q21.6699-9.0918 20.8887-10.8936Q20.1074-12.6953 18.7305-14.0723Q17.3535-15.4492 15.5469-16.2305Q13.7402-17.0117 11.6992-17.0117Q9.6582-17.0117 7.85645-16.2305Q6.05469-15.4492 4.68262-14.0723Q3.31055-12.6953 2.5293-10.8936Q1.74805-9.0918 1.74805-7.05078Q1.74805-5.00977 2.5293-3.20801Q3.31055-1.40625 4.6875-0.0292969Q6.06445 1.34766 7.86621 2.12891Q9.66797 2.91016 11.709 2.91016ZM11.709 1.25Q9.98047 1.25 8.47656 0.605469Q6.97266-0.0390625 5.83496-1.17676Q4.69727-2.31445 4.05762-3.81836Q3.41797-5.32227 3.41797-7.05078Q3.41797-8.7793 4.05762-10.2832Q4.69727-11.7871 5.83008-12.9297Q6.96289-14.0723 8.4668-14.7119Q9.9707-15.3516 11.6992-15.3516Q13.4277-15.3516 14.9316-14.7119Q16.4355-14.0723 17.5781-12.9297Q18.7207-11.7871 19.3652-10.2832Q20.0098-8.7793 20.0098-7.05078Q20.0098-5.32227 19.3701-3.81836Q18.7305-2.31445 17.5928-1.17676Q16.4551-0.0390625 14.9463 0.605469Q13.4375 1.25 11.709 1.25ZM7.17773-7.05078Q7.17773-6.69922 7.41211-6.47461Q7.64648-6.25 8.01758-6.25L10.8887-6.25L10.8887-3.36914Q10.8887-2.99805 11.1133-2.76855Q11.3379-2.53906 11.6895-2.53906Q12.0605-2.53906 12.29-2.76855Q12.5195-2.99805 12.5195-3.36914L12.5195-6.25L15.4004-6.25Q15.7715-6.25 16.001-6.47461Q16.2305-6.69922 16.2305-7.05078Q16.2305-7.42188 16.001-7.65137Q15.7715-7.88086 15.4004-7.88086L12.5195-7.88086L12.5195-10.752Q12.5195-11.1328 12.29-11.3623Q12.0605-11.5918 11.6895-11.5918Q11.3379-11.5918 11.1133-11.3574Q10.8887-11.123 10.8887-10.752L10.8887-7.88086L8.01758-7.88086Q7.63672-7.88086 7.40723-7.65137Q7.17773-7.42188 7.17773-7.05078Z"/>
  </g>
  <g transform="matrix(1 0 0 1 305.646 1933)">
   <path d="M14.9707 5.66406Q17.0605 5.66406 18.96 5.01465Q20.8594 4.36523 22.4512 3.19336Q24.043 2.02148 25.2197 0.429688Q26.3965-1.16211 27.0459-3.06641Q27.6953-4.9707 27.6953-7.05078Q27.6953-9.14062 27.0459-11.04Q26.3965-12.9395 25.2197-14.5312Q24.043-16.123 22.4512-17.2998Q20.8594-18.4766 18.9551-19.126Q17.0508-19.7754 14.9609-19.7754Q12.8711-19.7754 10.9717-19.126Q9.07227-18.4766 7.48535-17.2998Q5.89844-16.123 4.72168-14.5312Q3.54492-12.9395 2.90039-11.04Q2.25586-9.14062 2.25586-7.05078Q2.25586-4.9707 2.90527-3.06641Q3.55469-1.16211 4.72656 0.429688Q5.89844 2.02148 7.49023 3.19336Q9.08203 4.36523 10.9814 5.01465Q12.8809 5.66406 14.9707 5.66406ZM14.9707 3.84766Q13.1641 3.84766 11.5283 3.2959Q9.89258 2.74414 8.53516 1.74805Q7.17773 0.751953 6.17676-0.610352Q5.17578-1.97266 4.62891-3.6084Q4.08203-5.24414 4.08203-7.05078Q4.08203-8.86719 4.62891-10.5029Q5.17578-12.1387 6.17188-13.501Q7.16797-14.8633 8.52539-15.8594Q9.88281-16.8555 11.5186-17.4023Q13.1543-17.9492 14.9609-17.9492Q16.7773-17.9492 18.4131-17.4023Q20.0488-16.8555 21.4111-15.8594Q22.7734-14.8633 23.7695-13.501Q24.7656-12.1387 25.3174-10.5029Q25.8691-8.86719 25.8691-7.05078Q25.8789-5.24414 25.332-3.6084Q24.7852-1.97266 23.7842-0.610352Q22.7832 0.751953 21.4209 1.74805Q20.0586 2.74414 18.4229 3.2959Q16.7871 3.84766 14.9707 3.84766ZM9.19922-7.05078Q9.19922-6.66992 9.45801-6.4209Q9.7168-6.17188 10.1172-6.17188L14.0625-6.17188L14.0625-2.2168Q14.0625-1.81641 14.3115-1.55762Q14.5605-1.29883 14.9512-1.29883Q15.3516-1.29883 15.6104-1.55273Q15.8691-1.80664 15.8691-2.2168L15.8691-6.17188L19.8242-6.17188Q20.2246-6.17188 20.4785-6.4209Q20.7324-6.66992 20.7324-7.05078Q20.7324-7.46094 20.4785-7.71484Q20.2246-7.96875 19.8242-7.96875L15.8691-7.96875L15.8691-11.9141Q15.8691-12.3242 15.6104-12.583Q15.3516-12.8418 14.9512-12.8418Q14.5605-12.8418 14.3115-12.583Q14.0625-12.3242 14.0625-11.9141L14.0625-7.96875L10.1172-7.96875Q9.70703-7.96875 9.45312-7.71484Q9.19922-7.46094 9.19922-7.05078Z"/>
  </g>
  <text style="stroke:none;fill:black;font-family:sans-serif;font-size:13;font-weight:bold;" transform="matrix(1 0 0 1 263 1953)">Design Variations</text>
  <text style="stroke:none;fill:black;font-family:sans-serif;font-size:13;" transform="matrix(1 0 0 1 263 1971)">Symbols are supported in up to nine weights and three scales.</text>
  <text style="stroke:none;fill:black;font-family:sans-serif;font-size:13;" transform="matrix(1 0 0 1 263 1989)">For optimal layout with text and other symbols, vertically align</text>
  <text style="stroke:none;fill:black;font-family:sans-serif;font-size:13;" transform="matrix(1 0 0 1 263 2007)">symbols with the adjacent text.</text>
  <line style="fill:none;stroke:#00AEEF;stroke-width:0.5;opacity:1.0;" x1="776" x2="776" y1="1919" y2="1933"/>
  <g transform="matrix(1 0 0 1 776 1933)">
   <path d="M3.31055 0.15625Q3.70117 0.15625 3.91602-0.00976562Q4.13086-0.175781 4.26758-0.585938L5.52734-4.0332L11.2891-4.0332L12.5488-0.585938Q12.6855-0.175781 12.9004-0.00976562Q13.1152 0.15625 13.4961 0.15625Q13.8867 0.15625 14.1162-0.0585938Q14.3457-0.273438 14.3457-0.644531Q14.3457-0.869141 14.2383-1.17188L9.6582-13.3691Q9.48242-13.8184 9.17969-14.043Q8.87695-14.2676 8.4082-14.2676Q7.5-14.2676 7.17773-13.3789L2.59766-1.16211Q2.49023-0.859375 2.49023-0.634766Q2.49023-0.263672 2.70996-0.0537109Q2.92969 0.15625 3.31055 0.15625ZM6.00586-5.51758L8.37891-12.0898L8.42773-12.0898L10.8008-5.51758Z"/>
  </g>
  <line style="fill:none;stroke:#00AEEF;stroke-width:0.5;opacity:1.0;" x1="793.197" x2="793.197" y1="1919" y2="1933"/>
  <text style="stroke:none;fill:black;font-family:sans-serif;font-size:13;font-weight:bold;" transform="matrix(1 0 0 1 776 1953)">Margins</text>
  <text style="stroke:none;fill:black;font-family:sans-serif;font-size:13;" transform="matrix(1 0 0 1 776 1971)">Leading and trailing margins on the left and right side of each symbol</text>
  <text style="stroke:none;fill:black;font-family:sans-serif;font-size:13;" transform="matrix(1 0 0 1 776 1989)">can be adjusted by modifying the x-location of the margin guidelines.</text>
  <text style="stroke:none;fill:black;font-family:sans-serif;font-size:13;" transform="matrix(1 0 0 1 776 2007)">Modifications are automatically applied proportionally to all</text>
  <text style="stroke:none;fill:black;font-family:sans-serif;font-size:13;" transform="matrix(1 0 0 1 776 2025)">scales and weights.</text>
  <g transform="matrix(1 0 0 1 1289 1933)">
   <path d="M2.8418 1.86523L4.54102 3.57422Q5.18555 4.22852 5.90332 4.17969Q6.62109 4.13086 7.31445 3.35938L18.0078-8.42773L17.041-9.4043L6.42578 2.27539Q6.16211 2.57812 5.89355 2.61719Q5.625 2.65625 5.27344 2.30469L4.10156 1.14258Q3.75 0.791016 3.79395 0.522461Q3.83789 0.253906 4.14062-0.0195312L15.6152-10.8203L14.6387-11.7871L3.04688-0.898438Q2.30469-0.214844 2.25098 0.498047Q2.19727 1.21094 2.8418 1.86523ZM9.25781-16.3281Q8.94531-16.0254 8.90625-15.6348Q8.86719-15.2441 9.04297-14.9512Q9.21875-14.6777 9.55566-14.541Q9.89258-14.4043 10.3809-14.5215Q11.4746-14.7754 12.5977-14.7314Q13.7207-14.6875 14.7949-13.9844L14.209-12.5293Q13.9551-11.9043 14.0674-11.4404Q14.1797-10.9766 14.5801-10.5664L16.875-8.25195Q17.2363-7.88086 17.5781-7.82227Q17.9199-7.76367 18.3398-7.8418L19.4043-8.03711L20.0684-7.36328L20.0293-6.80664Q20-6.43555 20.1221-6.12305Q20.2441-5.81055 20.6055-5.44922L21.3672-4.70703Q21.7285-4.3457 22.1533-4.33105Q22.5781-4.31641 22.9297-4.66797L25.8398-7.58789Q26.1914-7.93945 26.1816-8.35449Q26.1719-8.76953 25.8105-9.13086L25.0391-9.89258Q24.6875-10.2539 24.3799-10.3857Q24.0723-10.5176 23.7109-10.4883L23.1348-10.4395L22.4902-11.0742L22.7344-12.1973Q22.832-12.6172 22.6953-12.9834Q22.5586-13.3496 22.1191-13.7891L19.9219-15.9766Q18.6719-17.2168 17.2607-17.8369Q15.8496-18.457 14.4189-18.4814Q12.9883-18.5059 11.665-17.959Q10.3418-17.4121 9.25781-16.3281ZM10.752-15.957Q11.6602-16.6211 12.7002-16.9043Q13.7402-17.1875 14.8047-17.085Q15.8691-16.9824 16.8701-16.5137Q17.8711-16.0449 18.7012-15.2051L21.1328-12.793Q21.3086-12.6172 21.3525-12.4512Q21.3965-12.2852 21.3379-12.0312L21.0156-10.5469L22.5195-9.0625L23.5059-9.12109Q23.6914-9.13086 23.7891-9.09668Q23.8867-9.0625 24.0332-8.91602L24.6094-8.33984L22.168-5.89844L21.5918-6.47461Q21.4453-6.62109 21.4062-6.71875Q21.3672-6.81641 21.377-7.01172L21.4453-7.98828L19.9512-9.47266L18.4277-9.21875Q18.1836-9.16992 18.042-9.2041Q17.9004-9.23828 17.7148-9.41406L15.7129-11.416Q15.5176-11.5918 15.4932-11.7529Q15.4688-11.9141 15.5859-12.1875L16.4648-14.2773Q15.293-15.3711 13.8281-15.791Q12.3633-16.2109 10.8398-15.7617Q10.7227-15.7324 10.6885-15.8057Q10.6543-15.8789 10.752-15.957Z"/>
  </g>
  <text style="stroke:none;fill:black;font-family:sans-serif;font-size:13;font-weight:bold;" transform="matrix(1 0 0 1 1289 1953)">Exporting</text>
  <text style="stroke:none;fill:black;font-family:sans-serif;font-size:13;" transform="matrix(1 0 0 1 1289 1971)">Symbols should be outlined when exporting to ensure the</text>
  <text style="stroke:none;fill:black;font-family:sans-serif;font-size:13;" transform="matrix(1 0 0 1 1289 1989)">design is preserved when submitting to Xcode.</text>
  <text id="template-version" style="stroke:none;fill:black;font-family:sans-serif;font-size:13;text-anchor:end;" transform="matrix(1 0 0 1 3036 1933)">Template v.2.0</text>
  <text style="stroke:none;fill:black;font-family:sans-serif;font-size:13;text-anchor:end;" transform="matrix(1 0 0 1 3036 1951)">Requires Xcode 13 or greater</text>
  <text id="descriptive-name" style="stroke:none;fill:black;font-family:sans-serif;font-size:13;text-anchor:end;" transform="matrix(1 0 0 1 3036 1969)">Generated from rectangle.arrowtriangle.2.inward</text>
  <text style="stroke:none;fill:black;font-family:sans-serif;font-size:13;text-anchor:end;" transform="matrix(1 0 0 1 3036 1987)">Typeset at 100 points</text>
  <text style="stroke:none;fill:black;font-family:sans-serif;font-size:13;" transform="matrix(1 0 0 1 263 726)">Small</text>
  <text style="stroke:none;fill:black;font-family:sans-serif;font-size:13;" transform="matrix(1 0 0 1 263 1156)">Medium</text>
  <text style="stroke:none;fill:black;font-family:sans-serif;font-size:13;" transform="matrix(1 0 0 1 263 1586)">Large</text>
 </g>
 <g id="Guides">
  <g id="H-reference" style="fill:#27AAE1;stroke:none;" transform="matrix(1 0 0 1 339 696)">
   <path d="M0.976562 0L3.66211 0L29.3457-67.1387L30.0293-67.1387L30.0293-70.459L28.125-70.459ZM11.6699-24.4629L46.9727-24.4629L46.2402-26.709L12.4512-26.709ZM55.127 0L57.7637 0L30.6152-70.459L29.4434-70.459L29.4434-67.1387Z"/>
  </g>
  <line id="Baseline-S" style="fill:none;stroke:#27AAE1;opacity:1;stroke-width:0.5;" x1="263" x2="3036" y1="696" y2="696"/>
  <line id="Capline-S" style="fill:none;stroke:#27AAE1;opacity:1;stroke-width:0.5;" x1="263" x2="3036" y1="625.541" y2="625.541"/>
  <g id="H-reference" style="fill:#27AAE1;stroke:none;" transform="matrix(1 0 0 1 339 1126)">
   <path d="M0.976562 0L3.66211 0L29.3457-67.1387L30.0293-67.1387L30.0293-70.459L28.125-70.459ZM11.6699-24.4629L46.9727-24.4629L46.2402-26.709L12.4512-26.709ZM55.127 0L57.7637 0L30.6152-70.459L29.4434-70.459L29.4434-67.1387Z"/>
  </g>
  <line id="Baseline-M" style="fill:none;stroke:#27AAE1;opacity:1;stroke-width:0.5;" x1="263" x2="3036" y1="1126" y2="1126"/>
  <line id="Capline-M" style="fill:none;stroke:#27AAE1;opacity:1;stroke-width:0.5;" x1="263" x2="3036" y1="1055.54" y2="1055.54"/>
  <g id="H-reference" style="fill:#27AAE1;stroke:none;" transform="matrix(1 0 0 1 339 1556)">
   <path d="M0.976562 0L3.66211 0L29.3457-67.1387L30.0293-67.1387L30.0293-70.459L28.125-70.459ZM11.6699-24.4629L46.9727-24.4629L46.2402-26.709L12.4512-26.709ZM55.127 0L57.7637 0L30.6152-70.459L29.4434-70.459L29.4434-67.1387Z"/>
  </g>
  <line id="Baseline-L" style="fill:none;stroke:#27AAE1;opacity:1;stroke-width:0.5;" x1="263" x2="3036" y1="1556" y2="1556"/>
  <line id="Capline-L" style="fill:none;stroke:#27AAE1;opacity:1;stroke-width:0.5;" x1="263" x2="3036" y1="1485.54" y2="1485.54"/>
  <line id="left-margin" style="fill:none;stroke:#00AEEF;stroke-width:0.5;opacity:1.0;" x1="1391.2" x2="1391.2" y1="1030.79" y2="1150.12"/>
  <line id="right-margin" style="fill:none;stroke:#00AEEF;stroke-width:0.5;opacity:1.0;" x1="1508.49" x2="1508.49" y1="1030.79" y2="1150.12"/>
 </g>
 <g id="Symbols">
  <g id="Black-L" transform="matrix(1 0 0 1 2852.27 1556)">
   <path d="M39.9902 11.084L122.314 11.084Q133.74 11.084 139.966 4.8584Q146.191-1.36719 146.191-12.7441L146.191-57.666Q146.191-69.043 139.966-75.2686Q133.74-81.4941 122.314-81.4941L39.9902-81.4941Q28.5156-81.4941 22.29-75.2686Q16.0645-69.043 16.0645-57.666L16.0645-12.7441Q16.0645-1.36719 22.29 4.8584Q28.5156 11.084 39.9902 11.084ZM42.6758-9.17969Q39.5508-9.17969 37.9395-10.6934Q36.3281-12.207 36.3281-15.625L36.3281-54.7852Q36.3281-58.2031 37.9395-59.7168Q39.5508-61.2305 42.6758-61.2305L119.58-61.2305Q122.754-61.2305 124.365-59.7168Q125.977-58.2031 125.977-54.7852L125.977-15.625Q125.977-12.207 124.365-10.6934Q122.754-9.17969 119.58-9.17969ZM67.1387-122.314Q63.1348-122.314 62.0117-119.36Q60.8887-116.406 63.1836-113.037L76.5137-93.5547Q78.2715-90.9668 81.3232-90.8936Q84.375-90.8203 86.1816-93.5547L99.2676-113.037Q100.684-115.186 100.659-117.334Q100.635-119.482 99.2676-120.898Q97.9004-122.314 95.2637-122.314ZM67.1875 51.8555L95.2637 51.8555Q97.9004 51.8555 99.2676 50.4395Q100.635 49.0234 100.659 46.8994Q100.684 44.7754 99.2676 42.627L86.1816 23.1445Q84.375 20.4102 81.3232 20.5078Q78.2715 20.6055 76.5137 23.1445L63.1836 42.627Q60.8887 45.9961 62.0117 48.9258Q63.1348 51.8555 67.1875 51.8555Z"/>
  </g>
  <g id="Heavy-L" transform="matrix(1 0 0 1 2557 1556)">
   <path d="M38.8184 9.57031L120.605 9.57031Q131.543 9.57031 137.427 3.68652Q143.311-2.19727 143.311-13.0859L143.311-57.3242Q143.311-68.2129 137.427-74.0967Q131.543-79.9805 120.605-79.9805L38.8184-79.9805Q27.832-79.9805 21.9482-74.1211Q16.0645-68.2617 16.0645-57.3242L16.0645-13.0859Q16.0645-2.14844 21.9482 3.71094Q27.832 9.57031 38.8184 9.57031ZM40.918-7.95898Q37.3047-7.95898 35.4492-9.74121Q33.5938-11.5234 33.5938-15.3809L33.5938-55.0293Q33.5938-58.8867 35.4492-60.6689Q37.3047-62.4512 40.918-62.4512L118.457-62.4512Q122.07-62.4512 123.95-60.6689Q125.83-58.8867 125.83-55.0293L125.83-15.3809Q125.83-11.5234 123.95-9.74121Q122.07-7.95898 118.457-7.95898ZM66.1621-119.678Q62.2559-119.678 61.1572-116.821Q60.0586-113.965 62.3047-110.742L75.1953-91.8457Q76.9043-89.3066 79.8828-89.2334Q82.8613-89.1602 84.5703-91.8457L97.2656-110.742Q98.6328-112.793 98.6084-114.868Q98.584-116.943 97.2656-118.311Q95.9473-119.678 93.4082-119.678ZM66.2109 49.2676L93.4082 49.2676Q95.9473 49.2676 97.2656 47.9004Q98.584 46.5332 98.6084 44.458Q98.6328 42.3828 97.2656 40.332L84.5703 21.4355Q82.8613 18.75 79.8828 18.8477Q76.9043 18.9453 75.1953 21.4355L62.3047 40.332Q60.0586 43.5547 61.1572 46.4111Q62.2559 49.2676 66.2109 49.2676Z"/>
  </g>
  <g id="Bold-L" transform="matrix(1 0 0 1 2261.88 1556)">
   <path d="M37.5488 7.91016L118.701 7.91016Q129.15 7.91016 134.644 2.41699Q140.137-3.07617 140.137-13.4277L140.137-56.9824Q140.137-67.334 134.644-72.8271Q129.15-78.3203 118.701-78.3203L37.5488-78.3203Q27.0508-78.3203 21.5576-72.8516Q16.0645-67.3828 16.0645-56.9824L16.0645-13.4277Q16.0645-3.07617 21.5576 2.41699Q27.0508 7.91016 37.5488 7.91016ZM38.9648-6.5918Q34.8633-6.5918 32.6904-8.69141Q30.5176-10.791 30.5176-15.0879L30.5176-55.3223Q30.5176-59.668 32.6904-61.7676Q34.8633-63.8672 38.9648-63.8672L117.236-63.8672Q121.338-63.8672 123.511-61.7676Q125.684-59.668 125.684-55.3223L125.684-15.0879Q125.684-10.791 123.511-8.69141Q121.338-6.5918 117.236-6.5918ZM65.0879-116.797Q61.2793-116.797 60.2295-114.038Q59.1797-111.279 61.3281-108.154L73.7793-89.8926Q75.4395-87.5 78.2959-87.4268Q81.1523-87.3535 82.8125-89.8926L95.0684-108.154Q96.3867-110.156 96.3623-112.158Q96.3379-114.16 95.0684-115.479Q93.7988-116.797 91.3086-116.797ZM65.0879 46.3379L91.3086 46.3379Q93.7988 46.3379 95.0684 45.0195Q96.3379 43.7012 96.3623 41.7236Q96.3867 39.7461 95.0684 37.7441L82.8125 19.4824Q81.1523 16.9434 78.2959 17.0166Q75.4395 17.0898 73.7793 19.4824L61.3281 37.7441Q59.1797 40.8691 60.2295 43.6035Q61.2793 46.3379 65.0879 46.3379Z"/>
  </g>
  <g id="Semibold-L" transform="matrix(1 0 0 1 1966.26 1556)">
   <path d="M36.6211 6.73828L117.334 6.73828Q127.441 6.73828 132.69 1.51367Q137.939-3.71094 137.939-13.6719L137.939-56.7383Q137.939-66.6992 132.69-71.9238Q127.441-77.1484 117.334-77.1484L36.6211-77.1484Q26.5137-77.1484 21.2891-71.9482Q16.0645-66.748 16.0645-56.7383L16.0645-13.6719Q16.0645-3.66211 21.2891 1.53809Q26.5137 6.73828 36.6211 6.73828ZM37.5977-5.61523Q33.1055-5.61523 30.7617-7.93457Q28.418-10.2539 28.418-14.8926L28.418-55.5176Q28.418-60.1562 30.7617-62.4756Q33.1055-64.7949 37.5977-64.7949L116.406-64.7949Q120.801-64.7949 123.193-62.4756Q125.586-60.1562 125.586-55.5176L125.586-14.8926Q125.586-10.2539 123.193-7.93457Q120.801-5.61523 116.406-5.61523ZM64.3066-114.746Q60.5957-114.746 59.5703-112.085Q58.5449-109.424 60.6445-106.348L72.7539-88.5742Q74.3652-86.1816 77.1729-86.1328Q79.9805-86.084 81.5918-88.5742L93.5059-106.348Q94.8242-108.301 94.7998-110.254Q94.7754-112.207 93.5303-113.477Q92.2852-114.746 89.8926-114.746ZM64.3066 44.3359L89.8926 44.3359Q92.2852 44.3359 93.5303 43.042Q94.7754 41.748 94.7998 39.8193Q94.8242 37.8906 93.5059 35.9375L81.5918 18.1641Q79.9805 15.6738 77.1729 15.7471Q74.3652 15.8203 72.7539 18.1641L60.6445 35.9375Q58.5449 39.0137 59.5703 41.6748Q60.5957 44.3359 64.3066 44.3359Z"/>
  </g>
  <g id="Medium-L" transform="matrix(1 0 0 1 1670.38 1556)">
   <path d="M35.9375 5.85938L116.357 5.85938Q126.172 5.85938 131.226 0.854492Q136.279-4.15039 136.279-13.8672L136.279-56.543Q136.279-66.2598 131.226-71.2646Q126.172-76.2695 116.357-76.2695L35.9375-76.2695Q26.123-76.2695 21.0938-71.2646Q16.0645-66.2598 16.0645-56.543L16.0645-13.8672Q16.0645-4.15039 21.0938 0.854492Q26.123 5.85938 35.9375 5.85938ZM36.5723-4.88281Q31.8359-4.88281 29.3213-7.37305Q26.8066-9.86328 26.8066-14.7461L26.8066-55.6641Q26.8066-60.5469 29.3213-63.0371Q31.8359-65.5273 36.5723-65.5273L115.723-65.5273Q120.41-65.5273 122.949-63.0371Q125.488-60.5469 125.488-55.6641L125.488-14.7461Q125.488-9.86328 122.949-7.37305Q120.41-4.88281 115.723-4.88281ZM63.7207-113.232Q60.1074-113.232 59.082-110.62Q58.0566-108.008 60.1562-104.98L71.9727-87.5488Q73.584-85.2539 76.3428-85.2051Q79.1016-85.1562 80.6641-87.5488L92.334-104.98Q93.6523-106.885 93.6279-108.789Q93.6035-110.693 92.3584-111.963Q91.1133-113.232 88.7695-113.232ZM63.7207 42.8223L88.7695 42.8223Q91.1133 42.8223 92.3584 41.5527Q93.6035 40.2832 93.6279 38.3789Q93.6523 36.4746 92.334 34.5703L80.6641 17.1387Q79.1016 14.7461 76.3428 14.7949Q73.584 14.8438 71.9727 17.1387L60.1562 34.5703Q58.0566 37.5977 59.082 40.21Q60.1074 42.8223 63.7207 42.8223Z"/>
  </g>
  <g id="Regular-L" transform="matrix(1 0 0 1 1374.77 1556)">
   <path d="M35.0586 4.6875L115.039 4.6875Q124.512 4.6875 129.297-0.0488281Q134.082-4.78516 134.082-14.1113L134.082-56.2988Q134.082-65.625 129.297-70.3613Q124.512-75.0977 115.039-75.0977L35.0586-75.0977Q25.5859-75.0977 20.8252-70.3857Q16.0645-65.6738 16.0645-56.2988L16.0645-14.1113Q16.0645-4.73633 20.8252-0.0244141Q25.5859 4.6875 35.0586 4.6875ZM35.2539-3.95508Q30.127-3.95508 27.417-6.64062Q24.707-9.32617 24.707-14.5508L24.707-55.8594Q24.707-61.084 27.417-63.7695Q30.127-66.4551 35.2539-66.4551L114.893-66.4551Q119.922-66.4551 122.656-63.7695Q125.391-61.084 125.391-55.8594L125.391-14.5508Q125.391-9.32617 122.656-6.64062Q119.922-3.95508 114.893-3.95508ZM62.9883-111.23Q59.4238-111.23 58.4229-108.691Q57.4219-106.152 59.4727-103.223L70.9961-86.2305Q72.5586-83.9844 75.2441-83.9355Q77.9297-83.8867 79.4434-86.2305L90.8203-103.223Q92.0898-105.078 92.0654-106.934Q92.041-108.789 90.8447-110.01Q89.6484-111.23 87.3535-111.23ZM62.9883 40.8203L87.3535 40.8203Q89.6484 40.8203 90.8447 39.5996Q92.041 38.3789 92.0654 36.5234Q92.0898 34.668 90.8203 32.8125L79.4434 15.8203Q77.9297 13.4766 75.2441 13.5254Q72.5586 13.5742 70.9961 15.8203L59.4727 32.8125Q57.4219 35.7422 58.4229 38.2812Q59.4238 40.8203 62.9883 40.8203Z"/>
  </g>
  <g id="Light-L" transform="matrix(1 0 0 1 1078.89 1556)">
   <path d="M34.0332 2.92969L114.404 2.92969Q123.34 2.92969 127.881-1.61133Q132.422-6.15234 132.422-14.9414L132.422-55.4199Q132.422-64.209 127.881-68.7256Q123.34-73.2422 114.404-73.2422L34.0332-73.2422Q25.0977-73.2422 20.5811-68.75Q16.0645-64.2578 16.0645-55.4199L16.0645-14.9414Q16.0645-6.10352 20.5811-1.58691Q25.0977 2.92969 34.0332 2.92969ZM34.2285-3.71094Q28.5645-3.71094 25.6104-6.64062Q22.6562-9.57031 22.6562-15.2832L22.6562-55.0781Q22.6562-60.791 25.6104-63.7207Q28.5645-66.6504 34.2285-66.6504L114.258-66.6504Q119.775-66.6504 122.778-63.7207Q125.781-60.791 125.781-55.0781L125.781-15.2832Q125.781-9.57031 122.778-6.64062Q119.775-3.71094 114.258-3.71094ZM62.6465-108.203Q59.2773-108.203 58.3252-105.786Q57.373-103.369 59.3262-100.537L70.3125-84.2773Q71.8262-82.1289 74.3896-82.0801Q76.9531-82.0312 78.418-84.2773L89.3066-100.537Q90.5273-102.344 90.5029-104.102Q90.4785-105.859 89.3311-107.031Q88.1836-108.203 85.9863-108.203ZM62.6465 37.8906L85.9863 37.8906Q88.1836 37.8906 89.3311 36.7188Q90.4785 35.5469 90.5029 33.7646Q90.5273 31.9824 89.3066 30.2246L78.418 13.9648Q76.9531 11.7188 74.3896 11.7676Q71.8262 11.8164 70.3125 13.9648L59.3262 30.2246Q57.373 33.0078 58.3252 35.4492Q59.2773 37.8906 62.6465 37.8906Z"/>
  </g>
  <g id="Thin-L" transform="matrix(1 0 0 1 783.278 1556)">
   <path d="M32.666 0.585938L113.574 0.585938Q121.729 0.585938 125.977-3.71094Q130.225-8.00781 130.225-16.0156L130.225-54.248Q130.225-62.3047 125.977-66.5527Q121.729-70.8008 113.574-70.8008L32.666-70.8008Q24.5117-70.8008 20.2881-66.5771Q16.0645-62.3535 16.0645-54.248L16.0645-16.0156Q16.0645-7.86133 20.2881-3.6377Q24.5117 0.585938 32.666 0.585938ZM32.8125-3.36914Q26.5137-3.36914 23.2666-6.61621Q20.0195-9.86328 20.0195-16.2109L20.0195-54.0527Q20.0195-60.4004 23.2666-63.6475Q26.5137-66.8945 32.8125-66.8945L113.428-66.8945Q119.531-66.8945 122.9-63.6475Q126.27-60.4004 126.27-54.0527L126.27-16.2109Q126.27-9.86328 122.9-6.61621Q119.531-3.36914 113.428-3.36914ZM62.2559-104.199Q59.082-104.199 58.1787-101.929Q57.2754-99.6582 59.082-97.0215L69.4336-81.6895Q70.8496-79.6875 73.2422-79.6631Q75.6348-79.6387 77.0508-81.6895L87.3535-97.0215Q88.4766-98.6816 88.4277-100.342Q88.3789-102.002 87.3047-103.101Q86.2305-104.199 84.1797-104.199ZM62.2559 33.9844L84.1797 33.9844Q86.2305 33.9844 87.3047 32.8857Q88.3789 31.7871 88.4277 30.127Q88.4766 28.4668 87.3535 26.7578L77.0508 11.4746Q75.6348 9.375 73.2422 9.42383Q70.8496 9.47266 69.4336 11.4746L59.082 26.7578Q57.2754 29.3945 58.1787 31.6895Q59.082 33.9844 62.2559 33.9844Z"/>
  </g>
  <g id="Ultralight-L" transform="matrix(1 0 0 1 487.128 1556)">
   <path d="M31.9824-0.634766L113.184-0.634766Q120.947-0.634766 125.024-4.78516Q129.102-8.93555 129.102-16.5527L129.102-53.6133Q129.102-61.3281 125.024-65.4541Q120.947-69.5801 113.184-69.5801L31.9824-69.5801Q24.1699-69.5801 20.1172-65.5029Q16.0645-61.4258 16.0645-53.6133L16.0645-16.5527Q16.0645-8.78906 20.1172-4.71191Q24.1699-0.634766 31.9824-0.634766ZM32.1289-3.17383Q25.4395-3.17383 22.0215-6.5918Q18.6035-10.0098 18.6035-16.6992L18.6035-53.5156Q18.6035-60.1562 22.0215-63.5742Q25.4395-66.9922 32.1289-66.9922L112.988-66.9922Q119.434-66.9922 122.974-63.5742Q126.514-60.1562 126.514-53.5156L126.514-16.6992Q126.514-10.0098 122.974-6.5918Q119.434-3.17383 112.988-3.17383ZM62.0117-102.148Q58.9844-102.148 58.1055-99.9512Q57.2266-97.7539 58.9844-95.166L68.9941-80.3711Q70.3613-78.4668 72.6807-78.418Q75-78.3691 76.3672-80.3711L86.3281-95.166Q87.4023-96.8262 87.3535-98.4375Q87.3047-100.049 86.2793-101.099Q85.2539-102.148 83.252-102.148ZM62.0117 31.9824L83.252 31.9824Q85.2539 31.9824 86.2793 30.9082Q87.3047 29.834 87.3535 28.2227Q87.4023 26.6113 86.3281 25L76.3672 10.2051Q75 8.1543 72.6807 8.20312Q70.3613 8.25195 68.9941 10.2051L58.9844 25Q57.2266 27.5879 58.1055 29.7852Q58.9844 31.9824 62.0117 31.9824Z"/>
  </g>
  <g id="Black-M" transform="matrix(1 0 0 1 2869.58 1126)">
   <path d="M31.5918 1.31836L96.0449 1.31836Q105.127 1.31836 110.156-3.71094Q115.186-8.74023 115.186-17.8223L115.186-52.5879Q115.186-61.6699 110.156-66.6992Q105.127-71.7285 96.0449-71.7285L31.5918-71.7285Q22.5586-71.7285 17.5049-66.6992Q12.4512-61.6699 12.4512-52.5879L12.4512-17.8223Q12.4512-8.74023 17.5049-3.71094Q22.5586 1.31836 31.5918 1.31836ZM34.2285-16.0156Q31.9824-16.0156 30.8838-17.041Q29.7852-18.0664 29.7852-20.459L29.7852-49.9512Q29.7852-52.3438 30.8838-53.3691Q31.9824-54.3945 34.2285-54.3945L93.4082-54.3945Q95.6543-54.3945 96.7529-53.3691Q97.8516-52.3438 97.8516-49.9512L97.8516-20.459Q97.8516-18.0664 96.7529-17.041Q95.6543-16.0156 93.4082-16.0156ZM52.7832-103.906Q49.6094-103.906 48.7305-101.587Q47.8516-99.2676 49.6582-96.6309L60.1562-81.25Q61.5723-79.1992 63.9648-79.1504Q66.3574-79.1016 67.7734-81.25L78.125-96.6309Q79.834-99.1699 78.9551-101.538Q78.0762-103.906 74.9512-103.906ZM52.832 33.4961L74.9512 33.4961Q78.0762 33.4961 78.9551 31.1279Q79.834 28.7598 78.125 26.2207L67.7734 10.8398Q66.3574 8.69141 63.9648 8.76465Q61.5723 8.83789 60.1562 10.8398L49.6582 26.2207Q47.8516 28.8574 48.7305 31.1768Q49.6094 33.4961 52.832 33.4961Z"/>
  </g>
  <g id="Heavy-M" transform="matrix(1 0 0 1 2574.09 1126)">
   <path d="M30.7129 0.244141L94.4824 0.244141Q103.271 0.244141 108.008-4.49219Q112.744-9.22852 112.744-17.9688L112.744-52.4414Q112.744-61.1816 108.008-65.918Q103.271-70.6543 94.4824-70.6543L30.7129-70.6543Q21.9727-70.6543 17.2119-65.918Q12.4512-61.1816 12.4512-52.4414L12.4512-17.9688Q12.4512-9.22852 17.2119-4.49219Q21.9727 0.244141 30.7129 0.244141ZM32.7148-14.8438Q30.127-14.8438 28.833-16.0889Q27.5391-17.334 27.5391-20.0684L27.5391-50.3418Q27.5391-53.0762 28.833-54.3213Q30.127-55.5664 32.7148-55.5664L92.4805-55.5664Q95.0195-55.5664 96.3379-54.3213Q97.6562-53.0762 97.6562-50.3418L97.6562-20.0684Q97.6562-17.334 96.3379-16.0889Q95.0195-14.8438 92.4805-14.8438ZM51.9043-102.002Q48.7793-102.002 47.9248-99.7559Q47.0703-97.5098 48.8281-94.9219L59.0332-79.9805Q60.4004-77.9785 62.7441-77.9297Q65.0879-77.8809 66.4551-79.9805L76.5137-94.9219Q78.1738-97.4121 77.3193-99.707Q76.4648-102.002 73.4375-102.002ZM51.9043 31.5918L73.4375 31.5918Q76.4648 31.5918 77.3193 29.2969Q78.1738 27.002 76.5137 24.5117L66.4551 9.57031Q65.0879 7.4707 62.7441 7.54395Q60.4004 7.61719 59.0332 9.57031L48.8281 24.5117Q47.0703 27.0996 47.9248 29.3457Q48.7793 31.5918 51.9043 31.5918Z"/>
  </g>
  <g id="Bold-M" transform="matrix(1 0 0 1 2278.75 1126)">
   <path d="M29.6875-0.976562L92.7734-0.976562Q101.172-0.976562 105.591-5.39551Q110.01-9.81445 110.01-18.1152L110.01-52.3438Q110.01-60.6445 105.591-65.0635Q101.172-69.4824 92.7734-69.4824L29.6875-69.4824Q21.3379-69.4824 16.8945-65.0635Q12.4512-60.6445 12.4512-52.3438L12.4512-18.1152Q12.4512-9.81445 16.8945-5.39551Q21.3379-0.976562 29.6875-0.976562ZM31.0547-13.5742Q28.125-13.5742 26.5869-15.0635Q25.0488-16.5527 25.0488-19.6289L25.0488-50.8301Q25.0488-53.9062 26.5869-55.3955Q28.125-56.8848 31.0547-56.8848L91.4062-56.8848Q94.3359-56.8848 95.874-55.3955Q97.4121-53.9062 97.4121-50.8301L97.4121-19.6289Q97.4121-16.5527 95.874-15.0635Q94.3359-13.5742 91.4062-13.5742ZM50.8789-99.9023Q47.9004-99.9023 47.0703-97.7295Q46.2402-95.5566 47.9492-93.0664L57.8125-78.5645Q59.1309-76.6602 61.4014-76.6113Q63.6719-76.5625 64.9902-78.5645L74.707-93.0664Q76.3184-95.459 75.4883-97.6807Q74.6582-99.9023 71.7285-99.9023ZM50.9277 29.4434L71.7285 29.4434Q74.6582 29.4434 75.4883 27.2217Q76.3184 25 74.707 22.6074L64.9902 8.10547Q63.6719 6.10352 61.4014 6.15234Q59.1309 6.20117 57.8125 8.10547L47.9492 22.6074Q46.2402 25.0977 47.0703 27.2705Q47.9004 29.4434 50.9277 29.4434Z"/>
  </g>
  <g id="Semibold-M" transform="matrix(1 0 0 1 1982.99 1126)">
   <path d="M29.0039-1.80664L91.6016-1.80664Q99.7559-1.80664 103.931-6.00586Q108.105-10.2051 108.105-18.2129L108.105-52.1973Q108.105-60.2539 103.931-64.4531Q99.7559-68.6523 91.6016-68.6523L29.0039-68.6523Q20.8984-68.6523 16.6748-64.4531Q12.4512-60.2539 12.4512-52.1973L12.4512-18.2129Q12.4512-10.1562 16.6748-5.98145Q20.8984-1.80664 29.0039-1.80664ZM29.8828-12.6953Q26.709-12.6953 25.0244-14.3555Q23.3398-16.0156 23.3398-19.3359L23.3398-51.123Q23.3398-54.4922 25.0244-56.1279Q26.709-57.7637 29.8828-57.7637L90.6738-57.7637Q93.8477-57.7637 95.5566-56.1279Q97.2656-54.4922 97.2656-51.123L97.2656-19.3359Q97.2656-16.0156 95.5566-14.3555Q93.8477-12.6953 90.6738-12.6953ZM50.1953-98.3887Q47.2656-98.3887 46.4355-96.2891Q45.6055-94.1895 47.3145-91.748L56.9336-77.5391Q58.2031-75.6836 60.4248-75.6592Q62.6465-75.6348 63.9648-77.5391L73.4375-91.748Q75-94.0918 74.2188-96.2402Q73.4375-98.3887 70.5078-98.3887ZM50.1953 27.9785L70.5078 27.9785Q73.4375 27.9785 74.2188 25.8057Q75 23.6328 73.4375 21.2891L63.9648 7.12891Q62.6465 5.17578 60.4248 5.2002Q58.2031 5.22461 56.9336 7.12891L47.3145 21.2891Q45.6055 23.7305 46.4355 25.8545Q47.2656 27.9785 50.1953 27.9785Z"/>
  </g>
  <g id="Medium-M" transform="matrix(1 0 0 1 1686.99 1126)">
   <path d="M28.4668-2.44141L90.6738-2.44141Q98.6328-2.44141 102.661-6.46973Q106.689-10.498 106.689-18.3105L106.689-52.1484Q106.689-60.0098 102.661-64.0137Q98.6328-68.0176 90.6738-68.0176L28.4668-68.0176Q20.5566-68.0176 16.5039-64.0137Q12.4512-60.0098 12.4512-52.1484L12.4512-18.3105Q12.4512-10.4492 16.5039-6.44531Q20.5566-2.44141 28.4668-2.44141ZM29.0039-12.0117Q25.6348-12.0117 23.8281-13.7939Q22.0215-15.5762 22.0215-19.0918L22.0215-51.3672Q22.0215-54.8828 23.8281-56.665Q25.6348-58.4473 29.0039-58.4473L90.1367-58.4473Q93.5059-58.4473 95.3125-56.665Q97.1191-54.8828 97.1191-51.3672L97.1191-19.0918Q97.1191-15.5762 95.3125-13.7939Q93.5059-12.0117 90.1367-12.0117ZM49.6582-97.3145Q46.7773-97.3145 45.9717-95.2393Q45.166-93.1641 46.8262-90.7227L56.25-76.8066Q57.5195-75 59.7168-74.9756Q61.9141-74.9512 63.1836-76.8066L72.4609-90.7227Q74.0234-93.0664 73.2422-95.1904Q72.4609-97.3145 69.6289-97.3145ZM49.6582 26.8555L69.6289 26.8555Q72.4609 26.8555 73.2422 24.7314Q74.0234 22.6074 72.4609 20.3125L63.1836 6.34766Q61.9141 4.44336 59.7168 4.46777Q57.5195 4.49219 56.25 6.34766L46.8262 20.3125Q45.166 22.7051 45.9717 24.7803Q46.7773 26.8555 49.6582 26.8555Z"/>
  </g>
  <g id="Regular-M" transform="matrix(1 0 0 1 1391.2 1126)">
   <path d="M27.7832-3.27148L89.502-3.27148Q97.2168-3.27148 101.025-7.08008Q104.834-10.8887 104.834-18.4082L104.834-52.0508Q104.834-59.6191 101.025-63.4033Q97.2168-67.1875 89.502-67.1875L27.7832-67.1875Q20.1172-67.1875 16.2842-63.4033Q12.4512-59.6191 12.4512-52.0508L12.4512-18.4082Q12.4512-10.8398 16.2842-7.05566Q20.1172-3.27148 27.7832-3.27148ZM27.8809-11.1328Q24.2188-11.1328 22.2656-13.0859Q20.3125-15.0391 20.3125-18.7988L20.3125-51.6602Q20.3125-55.4688 22.2656-57.3975Q24.2188-59.3262 27.8809-59.3262L89.4043-59.3262Q93.0176-59.3262 94.9951-57.3975Q96.9727-55.4688 96.9727-51.6602L96.9727-18.7988Q96.9727-15.0391 94.9951-13.0859Q93.0176-11.1328 89.4043-11.1328ZM48.9746-95.8496Q46.1426-95.8496 45.3613-93.8232Q44.5801-91.7969 46.1914-89.4531L55.4199-75.8301Q56.6406-74.0723 58.7891-74.0479Q60.9375-74.0234 62.1582-75.8301L71.2402-89.4531Q72.7539-91.6992 71.9971-93.7744Q71.2402-95.8496 68.457-95.8496ZM48.9746 25.3906L68.457 25.3906Q71.2402 25.3906 71.9971 23.3154Q72.7539 21.2402 71.2402 18.9941L62.1582 5.37109Q60.9375 3.51562 58.7891 3.54004Q56.6406 3.56445 55.4199 5.37109L46.1914 18.9941Q44.5801 21.3379 45.3613 23.3643Q46.1426 25.3906 48.9746 25.3906Z"/>
  </g>
  <g id="Light-M" transform="matrix(1 0 0 1 1095.22 1126)">
   <path d="M26.8555-4.88281L88.9648-4.88281Q96.1426-4.88281 99.7559-8.49609Q103.369-12.1094 103.369-19.1406L103.369-51.2695Q103.369-58.3008 99.7559-61.9141Q96.1426-65.5273 88.9648-65.5273L26.8555-65.5273Q19.6777-65.5273 16.0645-61.9385Q12.4512-58.3496 12.4512-51.2695L12.4512-19.1406Q12.4512-12.0117 16.0645-8.44727Q19.6777-4.88281 26.8555-4.88281ZM26.9531-10.8887Q22.8027-10.8887 20.6543-13.0615Q18.5059-15.2344 18.5059-19.4336L18.5059-50.9766Q18.5059-55.1758 20.6543-57.3242Q22.8027-59.4727 26.9531-59.4727L88.8672-59.4727Q92.8711-59.4727 95.0928-57.3242Q97.3145-55.1758 97.3145-50.9766L97.3145-19.4336Q97.3145-15.2344 95.0928-13.0615Q92.8711-10.8887 88.8672-10.8887ZM48.6816-93.1641Q45.9961-93.1641 45.2393-91.2354Q44.4824-89.3066 46.0449-87.0605L54.834-74.0723Q56.0059-72.4121 58.0322-72.3877Q60.0586-72.3633 61.2305-74.0723L69.9219-87.0605Q71.3379-89.209 70.6055-91.1865Q69.873-93.1641 67.2363-93.1641ZM48.6816 22.7539L67.2363 22.7539Q69.873 22.7539 70.6055 20.7764Q71.3379 18.7988 69.9219 16.6504L61.2305 3.71094Q60.0586 1.95312 58.0322 1.97754Q56.0059 2.00195 54.834 3.71094L46.0449 16.6504Q44.4824 18.8965 45.2393 20.8252Q45.9961 22.7539 48.6816 22.7539Z"/>
  </g>
  <g id="Thin-M" transform="matrix(1 0 0 1 799.513 1126)">
   <path d="M25.5859-6.98242L88.1836-6.98242Q94.7266-6.98242 98.0469-10.3516Q101.367-13.7207 101.367-20.1172L101.367-50.2441Q101.367-56.5918 98.0469-59.9854Q94.7266-63.3789 88.1836-63.3789L25.5859-63.3789Q19.1406-63.3789 15.7959-60.0342Q12.4512-56.6895 12.4512-50.2441L12.4512-20.1172Q12.4512-13.623 15.7959-10.3027Q19.1406-6.98242 25.5859-6.98242ZM25.7324-10.5957Q20.9961-10.5957 18.5547-13.0371Q16.1133-15.4785 16.1133-20.2637L16.1133-50.0488Q16.1133-54.834 18.5547-57.2754Q20.9961-59.7168 25.7324-59.7168L88.0859-59.7168Q92.7246-59.7168 95.2393-57.2754Q97.7539-54.834 97.7539-50.0488L97.7539-20.2637Q97.7539-15.4785 95.2393-13.0371Q92.7246-10.5957 88.0859-10.5957ZM48.3398-89.5508Q45.8496-89.5508 45.1172-87.7441Q44.3848-85.9375 45.8496-83.8867L54.0039-71.7773Q55.127-70.2148 57.0068-70.1904Q58.8867-70.166 60.0098-71.7773L68.1641-83.8867Q69.4336-85.8398 68.7256-87.6953Q68.0176-89.5508 65.625-89.5508ZM48.3398 19.2383L65.625 19.2383Q68.0176 19.2383 68.7256 17.3828Q69.4336 15.5273 68.1641 13.5254L60.0098 1.51367Q58.8867-0.146484 57.0068-0.12207Q55.127-0.0976562 54.0039 1.51367L45.8496 13.5254Q44.3848 15.625 45.1172 17.4316Q45.8496 19.2383 48.3398 19.2383Z"/>
  </g>
  <g id="Ultralight-M" transform="matrix(1 0 0 1 503.29 1126)">
   <path d="M24.9512-8.05664L87.8418-8.05664Q93.9941-8.05664 97.1924-11.3037Q100.391-14.5508 100.391-20.6055L100.391-49.707Q100.391-55.7129 97.1924-58.9844Q93.9941-62.2559 87.8418-62.2559L24.9512-62.2559Q18.8477-62.2559 15.6494-59.0332Q12.4512-55.8105 12.4512-49.707L12.4512-20.6055Q12.4512-14.4043 15.6494-11.2305Q18.8477-8.05664 24.9512-8.05664ZM25.0977-10.4492Q20.0195-10.4492 17.4316-13.0371Q14.8438-15.625 14.8438-20.7031L14.8438-49.5605Q14.8438-54.6387 17.4316-57.2266Q20.0195-59.8145 25.0977-59.8145L87.7441-59.8145Q92.627-59.8145 95.2881-57.2266Q97.9492-54.6387 97.9492-49.5605L97.9492-20.7031Q97.9492-15.625 95.2881-13.0371Q92.627-10.4492 87.7441-10.4492ZM48.1445-87.7441Q45.752-87.7441 45.0439-86.0107Q44.3359-84.2773 45.752-82.2266L53.6133-70.6055Q54.6875-69.0918 56.4941-69.0674Q58.3008-69.043 59.375-70.6055L67.2363-82.2266Q68.5059-84.1797 67.7979-85.9619Q67.0898-87.7441 64.7949-87.7441ZM48.1445 17.4316L64.7949 17.4316Q67.0898 17.4316 67.7979 15.6494Q68.5059 13.8672 67.2363 11.9629L59.375 0.390625Q58.3008-1.2207 56.4941-1.19629Q54.6875-1.17188 53.6133 0.390625L45.752 11.9629Q44.3359 13.9648 45.0439 15.6982Q45.752 17.4316 48.1445 17.4316Z"/>
  </g>
  <g id="Black-S" transform="matrix(1 0 0 1 2883.06 696)">
   <path d="M25-6.34766L75.6836-6.34766Q82.8613-6.34766 86.8896-10.376Q90.918-14.4043 90.918-21.582L90.918-48.8281Q90.918-56.0059 86.8896-60.0342Q82.8613-64.0625 75.6836-64.0625L25-64.0625Q17.8223-64.0625 13.7939-60.0342Q9.76562-56.0059 9.76562-48.8281L9.76562-21.582Q9.76562-14.4043 13.7939-10.376Q17.8223-6.34766 25-6.34766ZM27.2461-20.5078Q25.5859-20.5078 24.7559-21.2646Q23.9258-22.0215 23.9258-23.8281L23.9258-46.582Q23.9258-48.4375 24.7559-49.1699Q25.5859-49.9023 27.2461-49.9023L73.4375-49.9023Q75.1465-49.9023 75.9521-49.1699Q76.7578-48.4375 76.7578-46.582L76.7578-23.8281Q76.7578-22.0215 75.9521-21.2646Q75.1465-20.5078 73.4375-20.5078ZM41.6016-89.4531Q39.1113-89.4531 38.4277-87.6221Q37.7441-85.791 39.1602-83.6914L47.4609-71.582Q48.584-69.9707 50.4639-69.9219Q52.3438-69.873 53.4668-71.582L61.6211-83.6914Q62.9883-85.6934 62.2803-87.5732Q61.5723-89.4531 59.1309-89.4531ZM41.6504 19.043L59.1309 19.043Q61.5723 19.043 62.2803 17.1631Q62.9883 15.2832 61.6211 13.2812L53.4668 1.17188Q52.3438-0.537109 50.4639-0.463867Q48.584-0.390625 47.4609 1.17188L39.1602 13.2812Q37.7441 15.3809 38.4277 17.2119Q39.1113 19.043 41.6504 19.043Z"/>
  </g>
  <g id="Heavy-S" transform="matrix(1 0 0 1 2587.3 696)">
   <path d="M24.3652-7.08008L74.4629-7.08008Q81.3965-7.08008 85.2051-10.8643Q89.0137-14.6484 89.0137-21.582L89.0137-48.8281Q89.0137-55.7617 85.2051-59.5703Q81.3965-63.3789 74.4629-63.3789L24.3652-63.3789Q17.3828-63.3789 13.5742-59.5703Q9.76562-55.7617 9.76562-48.8281L9.76562-21.582Q9.76562-14.6484 13.5742-10.8643Q17.3828-7.08008 24.3652-7.08008ZM26.0742-19.5312Q24.1699-19.5312 23.2178-20.459Q22.2656-21.3867 22.2656-23.4375L22.2656-47.0215Q22.2656-49.0723 23.2178-49.9756Q24.1699-50.8789 26.0742-50.8789L72.7051-50.8789Q74.6094-50.8789 75.5859-49.9756Q76.5625-49.0723 76.5625-47.0215L76.5625-23.4375Q76.5625-21.3867 75.5859-20.459Q74.6094-19.5312 72.7051-19.5312ZM40.8691-88.1836Q38.4277-88.1836 37.7686-86.4014Q37.1094-84.6191 38.4766-82.5684L46.582-70.7031Q47.6562-69.1406 49.5117-69.0918Q51.3672-69.043 52.4414-70.7031L60.4004-82.5684Q61.7188-84.5215 61.0352-86.3525Q60.3516-88.1836 57.959-88.1836ZM40.918 17.7734L57.959 17.7734Q60.3516 17.7734 61.0352 15.918Q61.7188 14.0625 60.4004 12.1094L52.4414 0.292969Q51.3672-1.36719 49.5117-1.31836Q47.6562-1.26953 46.582 0.292969L38.4766 12.1094Q37.1094 14.1602 37.7686 15.9668Q38.4277 17.7734 40.918 17.7734Z"/>
  </g>
  <g id="Bold-S" transform="matrix(1 0 0 1 2291.64 696)">
   <path d="M23.6328-7.91016L73.0469-7.91016Q79.7852-7.91016 83.3496-11.4502Q86.9141-14.9902 86.9141-21.6309L86.9141-48.8281Q86.9141-55.4688 83.3496-59.0332Q79.7852-62.5977 73.0469-62.5977L23.6328-62.5977Q16.8945-62.5977 13.3301-59.0332Q9.76562-55.4688 9.76562-48.8281L9.76562-21.6309Q9.76562-14.9902 13.3301-11.4502Q16.8945-7.91016 23.6328-7.91016ZM24.8047-18.5059Q22.6562-18.5059 21.5088-19.5801Q20.3613-20.6543 20.3613-22.9492L20.3613-47.5098Q20.3613-49.8535 21.5088-50.9277Q22.6562-52.002 24.8047-52.002L71.875-52.002Q74.0723-52.002 75.1953-50.9277Q76.3184-49.8535 76.3184-47.5098L76.3184-22.9492Q76.3184-20.6543 75.1953-19.5801Q74.0723-18.5059 71.875-18.5059ZM40.0879-86.7676Q37.6953-86.7676 37.0361-85.0342Q36.377-83.3008 37.7441-81.2988L45.6055-69.7266Q46.6309-68.2129 48.4619-68.1885Q50.293-68.1641 51.3184-69.7266L59.082-81.2988Q60.3516-83.2031 59.6924-84.9854Q59.0332-86.7676 56.6895-86.7676ZM40.0879 16.3086L56.6895 16.3086Q59.0332 16.3086 59.6924 14.5264Q60.3516 12.7441 59.082 10.8398L51.3184-0.732422Q50.293-2.34375 48.4619-2.29492Q46.6309-2.24609 45.6055-0.732422L37.7441 10.8398Q36.377 12.8418 37.0361 14.5752Q37.6953 16.3086 40.0879 16.3086Z"/>
  </g>
  <g id="Semibold-S" transform="matrix(1 0 0 1 1995.68 696)">
   <path d="M23.0957-8.44727L72.0703-8.44727Q78.6133-8.44727 82.0068-11.8164Q85.4004-15.1855 85.4004-21.6309L85.4004-48.7793Q85.4004-55.2734 82.0068-58.6426Q78.6133-62.0117 72.0703-62.0117L23.0957-62.0117Q16.5527-62.0117 13.1592-58.6426Q9.76562-55.2734 9.76562-48.7793L9.76562-21.6309Q9.76562-15.1855 13.1592-11.8164Q16.5527-8.44727 23.0957-8.44727ZM23.877-17.7246Q21.5332-17.7246 20.2881-18.9453Q19.043-20.166 19.043-22.6074L19.043-47.8516Q19.043-50.3418 20.2881-51.5381Q21.5332-52.7344 23.877-52.7344L71.2891-52.7344Q73.6328-52.7344 74.8779-51.5381Q76.123-50.3418 76.123-47.8516L76.123-22.6074Q76.123-20.166 74.8779-18.9453Q73.6328-17.7246 71.2891-17.7246ZM39.502-85.7422Q37.1582-85.7422 36.499-84.0576Q35.8398-82.373 37.207-80.3711L44.873-69.043Q45.8984-67.5781 47.7051-67.5537Q49.5117-67.5293 50.5371-69.043L58.1055-80.3711Q59.375-82.2754 58.7158-84.0088Q58.0566-85.7422 55.8105-85.7422ZM39.502 15.332L55.8105 15.332Q58.0566 15.332 58.7158 13.5742Q59.375 11.8164 58.1055 9.96094L50.5371-1.41602Q49.5117-2.97852 47.7051-2.92969Q45.8984-2.88086 44.873-1.41602L37.207 9.96094Q35.8398 11.8652 36.499 13.5986Q37.1582 15.332 39.502 15.332Z"/>
  </g>
  <g id="Medium-S" transform="matrix(1 0 0 1 1699.51 696)">
   <path d="M22.7051-8.88672L71.3379-8.88672Q77.7832-8.88672 81.0547-12.1094Q84.3262-15.332 84.3262-21.6797L84.3262-48.7793Q84.3262-55.127 81.0547-58.374Q77.7832-61.6211 71.3379-61.6211L22.7051-61.6211Q16.3086-61.6211 13.0371-58.374Q9.76562-55.127 9.76562-48.7793L9.76562-21.6797Q9.76562-15.332 13.0371-12.1094Q16.3086-8.88672 22.7051-8.88672ZM23.1934-17.1875Q20.752-17.1875 19.4092-18.4814Q18.0664-19.7754 18.0664-22.3633L18.0664-48.0957Q18.0664-50.7324 19.4092-52.0264Q20.752-53.3203 23.1934-53.3203L70.8984-53.3203Q73.3398-53.3203 74.6582-52.0264Q75.9766-50.7324 75.9766-48.0957L75.9766-22.3633Q75.9766-19.7754 74.6582-18.4814Q73.3398-17.1875 70.8984-17.1875ZM39.0625-85.0098Q36.7676-85.0098 36.1084-83.3496Q35.4492-81.6895 36.8164-79.7363L44.3848-68.5547Q45.3613-67.0898 47.1436-67.0654Q48.9258-67.041 49.9512-68.5547L57.4219-79.7363Q58.6426-81.5918 58.0078-83.3008Q57.373-85.0098 55.127-85.0098ZM39.1113 14.5508L55.127 14.5508Q57.373 14.5508 58.0078 12.8418Q58.6426 11.1328 57.4219 9.27734L49.9512-1.9043Q48.9258-3.4668 47.1436-3.44238Q45.3613-3.41797 44.3848-1.9043L36.8164 9.27734Q35.4492 11.1816 36.1084 12.8662Q36.7676 14.5508 39.1113 14.5508Z"/>
  </g>
  <g id="Regular-S" transform="matrix(1 0 0 1 1403.53 696)">
   <path d="M22.2168-9.42383L70.4102-9.42383Q76.6602-9.42383 79.7607-12.4756Q82.8613-15.5273 82.8613-21.6797L82.8613-48.7793Q82.8613-54.9316 79.7607-58.0078Q76.6602-61.084 70.4102-61.084L22.2168-61.084Q15.9668-61.084 12.8662-58.0078Q9.76562-54.9316 9.76562-48.7793L9.76562-21.6797Q9.76562-15.5273 12.8662-12.4756Q15.9668-9.42383 22.2168-9.42383ZM22.3145-16.4551Q19.6777-16.4551 18.2373-17.8711Q16.7969-19.2871 16.7969-22.0703L16.7969-48.4375Q16.7969-51.2207 18.2373-52.6367Q19.6777-54.0527 22.3145-54.0527L70.3125-54.0527Q72.9492-54.0527 74.3896-52.6367Q75.8301-51.2207 75.8301-48.4375L75.8301-22.0703Q75.8301-19.2871 74.3896-17.8711Q72.9492-16.4551 70.3125-16.4551ZM38.5254-84.0332Q36.2305-84.0332 35.5957-82.3975Q34.9609-80.7617 36.2793-78.8574L43.7012-67.8711Q44.6777-66.4551 46.4355-66.4307Q48.1934-66.4062 49.1699-67.8711L56.4941-78.8574Q57.666-80.7129 57.0557-82.373Q56.4453-84.0332 54.248-84.0332ZM38.5254 13.5742L54.248 13.5742Q56.4453 13.5742 57.0557 11.8896Q57.666 10.2051 56.4941 8.39844L49.1699-2.58789Q48.1934-4.10156 46.4355-4.07715Q44.6777-4.05273 43.7012-2.58789L36.2793 8.39844Q34.9609 10.2539 35.5957 11.9141Q36.2305 13.5742 38.5254 13.5742Z"/>
  </g>
  <g id="Light-S" transform="matrix(1 0 0 1 1107.48 696)">
   <path d="M21.3867-10.8398L69.9219-10.8398Q75.7324-10.8398 78.6377-13.7207Q81.543-16.6016 81.543-22.3145L81.543-48.0957Q81.543-53.8086 78.6377-56.7139Q75.7324-59.6191 69.9219-59.6191L21.3867-59.6191Q15.5762-59.6191 12.6709-56.7139Q9.76562-53.8086 9.76562-48.0957L9.76562-22.3145Q9.76562-16.6016 12.6709-13.7207Q15.5762-10.8398 21.3867-10.8398ZM21.4844-16.2598Q18.457-16.2598 16.8213-17.8711Q15.1855-19.4824 15.1855-22.6074L15.1855-47.8027Q15.1855-50.9766 16.8213-52.5879Q18.457-54.1992 21.4844-54.1992L69.8242-54.1992Q72.8516-54.1992 74.4873-52.5879Q76.123-50.9766 76.123-47.8027L76.123-22.6074Q76.123-19.4824 74.4873-17.8711Q72.8516-16.2598 69.8242-16.2598ZM38.2812-81.6406Q36.1328-81.6406 35.5225-80.0781Q34.9121-78.5156 36.1328-76.7578L43.1641-66.3574Q44.0918-64.9902 45.752-64.9658Q47.4121-64.9414 48.3398-66.3574L55.3223-76.7578Q56.3965-78.4668 55.835-80.0537Q55.2734-81.6406 53.1738-81.6406ZM38.2812 11.2305L53.1738 11.2305Q55.2734 11.2305 55.835 9.64355Q56.3965 8.05664 55.3223 6.34766L48.3398-4.05273Q47.4121-5.51758 45.752-5.49316Q44.0918-5.46875 43.1641-4.05273L36.1328 6.34766Q34.9121 8.10547 35.5225 9.66797Q36.1328 11.2305 38.2812 11.2305Z"/>
  </g>
  <g id="Thin-S" transform="matrix(1 0 0 1 811.647 696)">
   <path d="M20.3125-12.6953L69.2383-12.6953Q74.4629-12.6953 77.124-15.3809Q79.7852-18.0664 79.7852-23.1934L79.7852-47.168Q79.7852-52.2949 77.124-54.9805Q74.4629-57.666 69.2383-57.666L20.3125-57.666Q15.0879-57.666 12.4268-55.0049Q9.76562-52.3438 9.76562-47.168L9.76562-23.1934Q9.76562-18.0176 12.4268-15.3564Q15.0879-12.6953 20.3125-12.6953ZM20.4102-16.0156Q16.7969-16.0156 14.9414-17.8711Q13.0859-19.7266 13.0859-23.3887L13.0859-46.9727Q13.0859-50.6348 14.9414-52.4902Q16.7969-54.3457 20.4102-54.3457L69.1406-54.3457Q72.6562-54.3457 74.585-52.4902Q76.5137-50.6348 76.5137-46.9727L76.5137-23.3887Q76.5137-19.7266 74.585-17.8711Q72.6562-16.0156 69.1406-16.0156ZM37.9395-78.4668Q35.9375-78.4668 35.376-77.0264Q34.8145-75.5859 35.9863-73.9258L42.4805-64.3066Q43.3594-63.0371 44.873-63.0127Q46.3867-62.9883 47.2656-64.3066L53.7109-73.9258Q54.7363-75.5371 54.1992-77.002Q53.6621-78.4668 51.709-78.4668ZM37.9395 8.10547L51.709 8.10547Q53.6621 8.10547 54.1992 6.64062Q54.7363 5.17578 53.7109 3.56445L47.2656-6.05469Q46.3867-7.37305 44.873-7.34863Q43.3594-7.32422 42.4805-6.05469L35.9863 3.56445Q34.8145 5.22461 35.376 6.66504Q35.9375 8.10547 37.9395 8.10547Z"/>
  </g>
  <g id="Ultralight-S" transform="matrix(1 0 0 1 515.375 696)">
   <path d="M19.7754-13.623L68.8965-13.623Q73.8281-13.623 76.3672-16.2109Q78.9062-18.7988 78.9062-23.6328L78.9062-46.6797Q78.9062-51.5137 76.3672-54.1016Q73.8281-56.6895 68.8965-56.6895L19.7754-56.6895Q14.8438-56.6895 12.3047-54.126Q9.76562-51.5625 9.76562-46.6797L9.76562-23.6328Q9.76562-18.75 12.3047-16.1865Q14.8438-13.623 19.7754-13.623ZM19.873-15.8691Q15.9668-15.8691 13.9648-17.8467Q11.9629-19.8242 11.9629-23.7305L11.9629-46.582Q11.9629-50.4883 13.9648-52.4658Q15.9668-54.4434 19.873-54.4434L68.7988-54.4434Q72.6074-54.4434 74.6582-52.4658Q76.709-50.4883 76.709-46.582L76.709-23.7305Q76.709-19.8242 74.6582-17.8467Q72.6074-15.8691 68.7988-15.8691ZM37.793-76.8555Q35.8887-76.8555 35.3271-75.4639Q34.7656-74.0723 35.8887-72.5098L42.0898-63.2812Q42.9688-62.0605 44.4336-62.0361Q45.8984-62.0117 46.7285-63.2812L52.9297-72.5098Q53.9062-74.0234 53.3936-75.4395Q52.8809-76.8555 50.9766-76.8555ZM37.793 6.54297L50.9766 6.54297Q52.8809 6.54297 53.3936 5.12695Q53.9062 3.71094 52.9297 2.19727L46.7285-7.03125Q45.8984-8.30078 44.4336-8.27637Q42.9688-8.25195 42.0898-7.03125L35.8887 2.19727Q34.7656 3.75977 35.3271 5.15137Q35.8887 6.54297 37.793 6.54297Z"/>
  </g>
 </g>
</svg>
