<?xml version="1.0" encoding="UTF-8"?>
<!--Generator: Apple Native CoreSVG 175-->
<!DOCTYPE svg
PUBLIC "-//W3C//DTD SVG 1.1//EN"
       "http://www.w3.org/Graphics/SVG/1.1/DTD/svg11.dtd">
<svg version="1.1" xmlns="http://www.w3.org/2000/svg" xmlns:xlink="http://www.w3.org/1999/xlink" width="3300" height="2200">
 <!--glyph: "uni100C1F.medium", point size: 100.0, font version: "17.0d12e1", template writer version: "65.1"-->
 <g id="Notes">
  <rect height="2200" id="artboard" style="fill:white;opacity:1" width="3300" x="0" y="0"/>
  <line style="fill:none;stroke:black;opacity:1;stroke-width:0.5;" x1="263" x2="3036" y1="292" y2="292"/>
  <text style="stroke:none;fill:black;font-family:sans-serif;font-size:13;font-weight:bold;" transform="matrix(1 0 0 1 263 322)">Weight/Scale Variations</text>
  <text style="stroke:none;fill:black;font-family:sans-serif;font-size:13;text-anchor:middle;" transform="matrix(1 0 0 1 559.711 322)">Ultralight</text>
  <text style="stroke:none;fill:black;font-family:sans-serif;font-size:13;text-anchor:middle;" transform="matrix(1 0 0 1 856.422 322)">Thin</text>
  <text style="stroke:none;fill:black;font-family:sans-serif;font-size:13;text-anchor:middle;" transform="matrix(1 0 0 1 1153.13 322)">Light</text>
  <text style="stroke:none;fill:black;font-family:sans-serif;font-size:13;text-anchor:middle;" transform="matrix(1 0 0 1 1449.84 322)">Regular</text>
  <text style="stroke:none;fill:black;font-family:sans-serif;font-size:13;text-anchor:middle;" transform="matrix(1 0 0 1 1746.56 322)">Medium</text>
  <text style="stroke:none;fill:black;font-family:sans-serif;font-size:13;text-anchor:middle;" transform="matrix(1 0 0 1 2043.27 322)">Semibold</text>
  <text style="stroke:none;fill:black;font-family:sans-serif;font-size:13;text-anchor:middle;" transform="matrix(1 0 0 1 2339.98 322)">Bold</text>
  <text style="stroke:none;fill:black;font-family:sans-serif;font-size:13;text-anchor:middle;" transform="matrix(1 0 0 1 2636.69 322)">Heavy</text>
  <text style="stroke:none;fill:black;font-family:sans-serif;font-size:13;text-anchor:middle;" transform="matrix(1 0 0 1 2933.4 322)">Black</text>
  <line style="fill:none;stroke:black;opacity:1;stroke-width:0.5;" x1="263" x2="3036" y1="1903" y2="1903"/>
  <g transform="matrix(1 0 0 1 263 1933)">
   <path d="M9.24805 0.830078Q10.8691 0.830078 12.2949 0.214844Q13.7207-0.400391 14.8096-1.49414Q15.8984-2.58789 16.5186-4.01367Q17.1387-5.43945 17.1387-7.05078Q17.1387-8.66211 16.5186-10.0879Q15.8984-11.5137 14.8047-12.6074Q13.7109-13.7012 12.2852-14.3164Q10.8594-14.9316 9.23828-14.9316Q7.62695-14.9316 6.20117-14.3164Q4.77539-13.7012 3.69141-12.6074Q2.60742-11.5137 1.9873-10.0879Q1.36719-8.66211 1.36719-7.05078Q1.36719-5.43945 1.9873-4.01367Q2.60742-2.58789 3.69629-1.49414Q4.78516-0.400391 6.21094 0.214844Q7.63672 0.830078 9.24805 0.830078ZM9.24805-0.654297Q7.91992-0.654297 6.7627-1.14746Q5.60547-1.64062 4.73145-2.51953Q3.85742-3.39844 3.36426-4.56055Q2.87109-5.72266 2.87109-7.05078Q2.87109-8.37891 3.35938-9.54102Q3.84766-10.7031 4.72168-11.582Q5.5957-12.4609 6.75293-12.9541Q7.91016-13.4473 9.23828-13.4473Q10.5762-13.4473 11.7334-12.9541Q12.8906-12.4609 13.7695-11.582Q14.6484-10.7031 15.1465-9.54102Q15.6445-8.37891 15.6445-7.05078Q15.6445-5.72266 15.1514-4.56055Q14.6582-3.39844 13.7842-2.51953Q12.9102-1.64062 11.748-1.14746Q10.5859-0.654297 9.24805-0.654297ZM5.6543-7.05078Q5.6543-6.72852 5.85938-6.52832Q6.06445-6.32812 6.40625-6.32812L8.51562-6.32812L8.51562-4.20898Q8.51562-3.88672 8.71094-3.67676Q8.90625-3.4668 9.23828-3.4668Q9.56055-3.4668 9.77051-3.67676Q9.98047-3.88672 9.98047-4.20898L9.98047-6.32812L12.0898-6.32812Q12.4219-6.32812 12.627-6.52832Q12.832-6.72852 12.832-7.05078Q12.832-7.38281 12.627-7.58789Q12.4219-7.79297 12.0898-7.79297L9.98047-7.79297L9.98047-9.90234Q9.98047-10.2344 9.77051-10.4443Q9.56055-10.6543 9.23828-10.6543Q8.90625-10.6543 8.71094-10.4443Q8.51562-10.2344 8.51562-9.90234L8.51562-7.79297L6.40625-7.79297Q6.06445-7.79297 5.85938-7.58789Q5.6543-7.38281 5.6543-7.05078Z"/>
  </g>
  <g transform="matrix(1 0 0 1 281.867 1933)">
   <path d="M11.709 2.91016Q13.75 2.91016 15.5518 2.12891Q17.3535 1.34766 18.7305-0.0292969Q20.1074-1.40625 20.8887-3.20801Q21.6699-5.00977 21.6699-7.05078Q21.6699-9.0918 20.8887-10.8936Q20.1074-12.6953 18.7305-14.0723Q17.3535-15.4492 15.5469-16.2305Q13.7402-17.0117 11.6992-17.0117Q9.6582-17.0117 7.85645-16.2305Q6.05469-15.4492 4.68262-14.0723Q3.31055-12.6953 2.5293-10.8936Q1.74805-9.0918 1.74805-7.05078Q1.74805-5.00977 2.5293-3.20801Q3.31055-1.40625 4.6875-0.0292969Q6.06445 1.34766 7.86621 2.12891Q9.66797 2.91016 11.709 2.91016ZM11.709 1.25Q9.98047 1.25 8.47656 0.605469Q6.97266-0.0390625 5.83496-1.17676Q4.69727-2.31445 4.05762-3.81836Q3.41797-5.32227 3.41797-7.05078Q3.41797-8.7793 4.05762-10.2832Q4.69727-11.7871 5.83008-12.9297Q6.96289-14.0723 8.4668-14.7119Q9.9707-15.3516 11.6992-15.3516Q13.4277-15.3516 14.9316-14.7119Q16.4355-14.0723 17.5781-12.9297Q18.7207-11.7871 19.3652-10.2832Q20.0098-8.7793 20.0098-7.05078Q20.0098-5.32227 19.3701-3.81836Q18.7305-2.31445 17.5928-1.17676Q16.4551-0.0390625 14.9463 0.605469Q13.4375 1.25 11.709 1.25ZM7.17773-7.05078Q7.17773-6.69922 7.41211-6.47461Q7.64648-6.25 8.01758-6.25L10.8887-6.25L10.8887-3.36914Q10.8887-2.99805 11.1133-2.76855Q11.3379-2.53906 11.6895-2.53906Q12.0605-2.53906 12.29-2.76855Q12.5195-2.99805 12.5195-3.36914L12.5195-6.25L15.4004-6.25Q15.7715-6.25 16.001-6.47461Q16.2305-6.69922 16.2305-7.05078Q16.2305-7.42188 16.001-7.65137Q15.7715-7.88086 15.4004-7.88086L12.5195-7.88086L12.5195-10.752Q12.5195-11.1328 12.29-11.3623Q12.0605-11.5918 11.6895-11.5918Q11.3379-11.5918 11.1133-11.3574Q10.8887-11.123 10.8887-10.752L10.8887-7.88086L8.01758-7.88086Q7.63672-7.88086 7.40723-7.65137Q7.17773-7.42188 7.17773-7.05078Z"/>
  </g>
  <g transform="matrix(1 0 0 1 305.646 1933)">
   <path d="M14.9707 5.66406Q17.0605 5.66406 18.96 5.01465Q20.8594 4.36523 22.4512 3.19336Q24.043 2.02148 25.2197 0.429688Q26.3965-1.16211 27.0459-3.06641Q27.6953-4.9707 27.6953-7.05078Q27.6953-9.14062 27.0459-11.04Q26.3965-12.9395 25.2197-14.5312Q24.043-16.123 22.4512-17.2998Q20.8594-18.4766 18.9551-19.126Q17.0508-19.7754 14.9609-19.7754Q12.8711-19.7754 10.9717-19.126Q9.07227-18.4766 7.48535-17.2998Q5.89844-16.123 4.72168-14.5312Q3.54492-12.9395 2.90039-11.04Q2.25586-9.14062 2.25586-7.05078Q2.25586-4.9707 2.90527-3.06641Q3.55469-1.16211 4.72656 0.429688Q5.89844 2.02148 7.49023 3.19336Q9.08203 4.36523 10.9814 5.01465Q12.8809 5.66406 14.9707 5.66406ZM14.9707 3.84766Q13.1641 3.84766 11.5283 3.2959Q9.89258 2.74414 8.53516 1.74805Q7.17773 0.751953 6.17676-0.610352Q5.17578-1.97266 4.62891-3.6084Q4.08203-5.24414 4.08203-7.05078Q4.08203-8.86719 4.62891-10.5029Q5.17578-12.1387 6.17188-13.501Q7.16797-14.8633 8.52539-15.8594Q9.88281-16.8555 11.5186-17.4023Q13.1543-17.9492 14.9609-17.9492Q16.7773-17.9492 18.4131-17.4023Q20.0488-16.8555 21.4111-15.8594Q22.7734-14.8633 23.7695-13.501Q24.7656-12.1387 25.3174-10.5029Q25.8691-8.86719 25.8691-7.05078Q25.8789-5.24414 25.332-3.6084Q24.7852-1.97266 23.7842-0.610352Q22.7832 0.751953 21.4209 1.74805Q20.0586 2.74414 18.4229 3.2959Q16.7871 3.84766 14.9707 3.84766ZM9.19922-7.05078Q9.19922-6.66992 9.45801-6.4209Q9.7168-6.17188 10.1172-6.17188L14.0625-6.17188L14.0625-2.2168Q14.0625-1.81641 14.3115-1.55762Q14.5605-1.29883 14.9512-1.29883Q15.3516-1.29883 15.6104-1.55273Q15.8691-1.80664 15.8691-2.2168L15.8691-6.17188L19.8242-6.17188Q20.2246-6.17188 20.4785-6.4209Q20.7324-6.66992 20.7324-7.05078Q20.7324-7.46094 20.4785-7.71484Q20.2246-7.96875 19.8242-7.96875L15.8691-7.96875L15.8691-11.9141Q15.8691-12.3242 15.6104-12.583Q15.3516-12.8418 14.9512-12.8418Q14.5605-12.8418 14.3115-12.583Q14.0625-12.3242 14.0625-11.9141L14.0625-7.96875L10.1172-7.96875Q9.70703-7.96875 9.45312-7.71484Q9.19922-7.46094 9.19922-7.05078Z"/>
  </g>
  <text style="stroke:none;fill:black;font-family:sans-serif;font-size:13;font-weight:bold;" transform="matrix(1 0 0 1 263 1953)">Design Variations</text>
  <text style="stroke:none;fill:black;font-family:sans-serif;font-size:13;" transform="matrix(1 0 0 1 263 1971)">Symbols are supported in up to nine weights and three scales.</text>
  <text style="stroke:none;fill:black;font-family:sans-serif;font-size:13;" transform="matrix(1 0 0 1 263 1989)">For optimal layout with text and other symbols, vertically align</text>
  <text style="stroke:none;fill:black;font-family:sans-serif;font-size:13;" transform="matrix(1 0 0 1 263 2007)">symbols with the adjacent text.</text>
  <line style="fill:none;stroke:#00AEEF;stroke-width:0.5;opacity:1.0;" x1="776" x2="776" y1="1919" y2="1933"/>
  <g transform="matrix(1 0 0 1 776 1933)">
   <path d="M3.31055 0.15625Q3.70117 0.15625 3.91602-0.00976562Q4.13086-0.175781 4.26758-0.585938L5.52734-4.0332L11.2891-4.0332L12.5488-0.585938Q12.6855-0.175781 12.9004-0.00976562Q13.1152 0.15625 13.4961 0.15625Q13.8867 0.15625 14.1162-0.0585938Q14.3457-0.273438 14.3457-0.644531Q14.3457-0.869141 14.2383-1.17188L9.6582-13.3691Q9.48242-13.8184 9.17969-14.043Q8.87695-14.2676 8.4082-14.2676Q7.5-14.2676 7.17773-13.3789L2.59766-1.16211Q2.49023-0.859375 2.49023-0.634766Q2.49023-0.263672 2.70996-0.0537109Q2.92969 0.15625 3.31055 0.15625ZM6.00586-5.51758L8.37891-12.0898L8.42773-12.0898L10.8008-5.51758Z"/>
  </g>
  <line style="fill:none;stroke:#00AEEF;stroke-width:0.5;opacity:1.0;" x1="793.197" x2="793.197" y1="1919" y2="1933"/>
  <text style="stroke:none;fill:black;font-family:sans-serif;font-size:13;font-weight:bold;" transform="matrix(1 0 0 1 776 1953)">Margins</text>
  <text style="stroke:none;fill:black;font-family:sans-serif;font-size:13;" transform="matrix(1 0 0 1 776 1971)">Leading and trailing margins on the left and right side of each symbol</text>
  <text style="stroke:none;fill:black;font-family:sans-serif;font-size:13;" transform="matrix(1 0 0 1 776 1989)">can be adjusted by modifying the x-location of the margin guidelines.</text>
  <text style="stroke:none;fill:black;font-family:sans-serif;font-size:13;" transform="matrix(1 0 0 1 776 2007)">Modifications are automatically applied proportionally to all</text>
  <text style="stroke:none;fill:black;font-family:sans-serif;font-size:13;" transform="matrix(1 0 0 1 776 2025)">scales and weights.</text>
  <g transform="matrix(1 0 0 1 1289 1933)">
   <path d="M2.8418 1.86523L4.54102 3.57422Q5.18555 4.22852 5.90332 4.17969Q6.62109 4.13086 7.31445 3.35938L18.0078-8.42773L17.041-9.4043L6.42578 2.27539Q6.16211 2.57812 5.89355 2.61719Q5.625 2.65625 5.27344 2.30469L4.10156 1.14258Q3.75 0.791016 3.79395 0.522461Q3.83789 0.253906 4.14062-0.0195312L15.6152-10.8203L14.6387-11.7871L3.04688-0.898438Q2.30469-0.214844 2.25098 0.498047Q2.19727 1.21094 2.8418 1.86523ZM9.25781-16.3281Q8.94531-16.0254 8.90625-15.6348Q8.86719-15.2441 9.04297-14.9512Q9.21875-14.6777 9.55566-14.541Q9.89258-14.4043 10.3809-14.5215Q11.4746-14.7754 12.5977-14.7314Q13.7207-14.6875 14.7949-13.9844L14.209-12.5293Q13.9551-11.9043 14.0674-11.4404Q14.1797-10.9766 14.5801-10.5664L16.875-8.25195Q17.2363-7.88086 17.5781-7.82227Q17.9199-7.76367 18.3398-7.8418L19.4043-8.03711L20.0684-7.36328L20.0293-6.80664Q20-6.43555 20.1221-6.12305Q20.2441-5.81055 20.6055-5.44922L21.3672-4.70703Q21.7285-4.3457 22.1533-4.33105Q22.5781-4.31641 22.9297-4.66797L25.8398-7.58789Q26.1914-7.93945 26.1816-8.35449Q26.1719-8.76953 25.8105-9.13086L25.0391-9.89258Q24.6875-10.2539 24.3799-10.3857Q24.0723-10.5176 23.7109-10.4883L23.1348-10.4395L22.4902-11.0742L22.7344-12.1973Q22.832-12.6172 22.6953-12.9834Q22.5586-13.3496 22.1191-13.7891L19.9219-15.9766Q18.6719-17.2168 17.2607-17.8369Q15.8496-18.457 14.4189-18.4814Q12.9883-18.5059 11.665-17.959Q10.3418-17.4121 9.25781-16.3281ZM10.752-15.957Q11.6602-16.6211 12.7002-16.9043Q13.7402-17.1875 14.8047-17.085Q15.8691-16.9824 16.8701-16.5137Q17.8711-16.0449 18.7012-15.2051L21.1328-12.793Q21.3086-12.6172 21.3525-12.4512Q21.3965-12.2852 21.3379-12.0312L21.0156-10.5469L22.5195-9.0625L23.5059-9.12109Q23.6914-9.13086 23.7891-9.09668Q23.8867-9.0625 24.0332-8.91602L24.6094-8.33984L22.168-5.89844L21.5918-6.47461Q21.4453-6.62109 21.4062-6.71875Q21.3672-6.81641 21.377-7.01172L21.4453-7.98828L19.9512-9.47266L18.4277-9.21875Q18.1836-9.16992 18.042-9.2041Q17.9004-9.23828 17.7148-9.41406L15.7129-11.416Q15.5176-11.5918 15.4932-11.7529Q15.4688-11.9141 15.5859-12.1875L16.4648-14.2773Q15.293-15.3711 13.8281-15.791Q12.3633-16.2109 10.8398-15.7617Q10.7227-15.7324 10.6885-15.8057Q10.6543-15.8789 10.752-15.957Z"/>
  </g>
  <text style="stroke:none;fill:black;font-family:sans-serif;font-size:13;font-weight:bold;" transform="matrix(1 0 0 1 1289 1953)">Exporting</text>
  <text style="stroke:none;fill:black;font-family:sans-serif;font-size:13;" transform="matrix(1 0 0 1 1289 1971)">Symbols should be outlined when exporting to ensure the</text>
  <text style="stroke:none;fill:black;font-family:sans-serif;font-size:13;" transform="matrix(1 0 0 1 1289 1989)">design is preserved when submitting to Xcode.</text>
  <text id="template-version" style="stroke:none;fill:black;font-family:sans-serif;font-size:13;text-anchor:end;" transform="matrix(1 0 0 1 3036 1933)">Template v.2.0</text>
  <text style="stroke:none;fill:black;font-family:sans-serif;font-size:13;text-anchor:end;" transform="matrix(1 0 0 1 3036 1951)">Requires Xcode 13 or greater</text>
  <text id="descriptive-name" style="stroke:none;fill:black;font-family:sans-serif;font-size:13;text-anchor:end;" transform="matrix(1 0 0 1 3036 1969)">Generated from arrowshape.turn.up.forward.fill</text>
  <text style="stroke:none;fill:black;font-family:sans-serif;font-size:13;text-anchor:end;" transform="matrix(1 0 0 1 3036 1987)">Typeset at 100 points</text>
  <text style="stroke:none;fill:black;font-family:sans-serif;font-size:13;" transform="matrix(1 0 0 1 263 726)">Small</text>
  <text style="stroke:none;fill:black;font-family:sans-serif;font-size:13;" transform="matrix(1 0 0 1 263 1156)">Medium</text>
  <text style="stroke:none;fill:black;font-family:sans-serif;font-size:13;" transform="matrix(1 0 0 1 263 1586)">Large</text>
 </g>
 <g id="Guides">
  <g id="H-reference" style="fill:#27AAE1;stroke:none;" transform="matrix(1 0 0 1 339 696)">
   <path d="M0.976562 0L3.66211 0L29.3457-67.1387L30.0293-67.1387L30.0293-70.459L28.125-70.459ZM11.6699-24.4629L46.9727-24.4629L46.2402-26.709L12.4512-26.709ZM55.127 0L57.7637 0L30.6152-70.459L29.4434-70.459L29.4434-67.1387Z"/>
  </g>
  <line id="Baseline-S" style="fill:none;stroke:#27AAE1;opacity:1;stroke-width:0.5;" x1="263" x2="3036" y1="696" y2="696"/>
  <line id="Capline-S" style="fill:none;stroke:#27AAE1;opacity:1;stroke-width:0.5;" x1="263" x2="3036" y1="625.541" y2="625.541"/>
  <g id="H-reference" style="fill:#27AAE1;stroke:none;" transform="matrix(1 0 0 1 339 1126)">
   <path d="M0.976562 0L3.66211 0L29.3457-67.1387L30.0293-67.1387L30.0293-70.459L28.125-70.459ZM11.6699-24.4629L46.9727-24.4629L46.2402-26.709L12.4512-26.709ZM55.127 0L57.7637 0L30.6152-70.459L29.4434-70.459L29.4434-67.1387Z"/>
  </g>
  <line id="Baseline-M" style="fill:none;stroke:#27AAE1;opacity:1;stroke-width:0.5;" x1="263" x2="3036" y1="1126" y2="1126"/>
  <line id="Capline-M" style="fill:none;stroke:#27AAE1;opacity:1;stroke-width:0.5;" x1="263" x2="3036" y1="1055.54" y2="1055.54"/>
  <g id="H-reference" style="fill:#27AAE1;stroke:none;" transform="matrix(1 0 0 1 339 1556)">
   <path d="M0.976562 0L3.66211 0L29.3457-67.1387L30.0293-67.1387L30.0293-70.459L28.125-70.459ZM11.6699-24.4629L46.9727-24.4629L46.2402-26.709L12.4512-26.709ZM55.127 0L57.7637 0L30.6152-70.459L29.4434-70.459L29.4434-67.1387Z"/>
  </g>
  <line id="Baseline-L" style="fill:none;stroke:#27AAE1;opacity:1;stroke-width:0.5;" x1="263" x2="3036" y1="1556" y2="1556"/>
  <line id="Capline-L" style="fill:none;stroke:#27AAE1;opacity:1;stroke-width:0.5;" x1="263" x2="3036" y1="1485.54" y2="1485.54"/>
  <line id="left-margin" style="fill:none;stroke:#00AEEF;stroke-width:0.5;opacity:1.0;" x1="1387.86" x2="1387.86" y1="1030.79" y2="1150.12"/>
  <line id="right-margin" style="fill:none;stroke:#00AEEF;stroke-width:0.5;opacity:1.0;" x1="1511.83" x2="1511.83" y1="1030.79" y2="1150.12"/>
 </g>
 <g id="Symbols">
  <g id="Black-L" transform="matrix(1 0 0 1 2851.76 1556)">
   <path d="M87.7441 26.3672Q91.1133 26.3672 93.9453 25.0244Q96.7773 23.6816 100 20.6543L150.439-25.9766Q152.393-27.7832 153.418-30.3467Q154.443-32.9102 154.443-35.2051Q154.443-37.6465 153.442-40.1123Q152.441-42.5781 150.537-44.3848L100-90.9668Q96.4844-94.1895 93.75-95.5078Q91.0156-96.8262 87.793-96.8262Q82.5684-96.8262 79.0527-93.2617Q75.5371-89.6973 75.5371-84.4727L75.5371-66.2598L74.9023-66.2598Q60.4004-66.2598 49.292-61.6699Q38.1836-57.0801 30.6152-48.2666Q23.0469-39.4531 19.165-26.8066Q15.2832-14.1602 15.2832 1.9043Q15.2832 13.623 18.3838 19.4092Q21.4844 25.1953 27.2461 25.1953Q31.1523 25.1953 34.2041 23.291Q37.2559 21.3867 39.7461 16.6016Q43.1152 10.6445 47.7539 6.05469Q52.3926 1.46484 58.9844-1.12305Q65.5762-3.71094 74.9023-3.71094L75.5371-3.71094L75.5371 14.209Q75.5371 19.3848 79.0527 22.876Q82.5684 26.3672 87.7441 26.3672Z"/>
  </g>
  <g id="Heavy-L" transform="matrix(1 0 0 1 2555.63 1556)">
   <path d="M87.8418 25.293Q90.918 25.293 93.5059 24.0479Q96.0938 22.8027 99.0234 20.0195L149.268-26.6113Q151.221-28.418 152.173-30.7617Q153.125-33.1055 153.125-35.2051Q153.125-37.4512 152.197-39.7217Q151.27-41.9922 149.365-43.7988L99.0234-90.332Q95.8496-93.2617 93.3594-94.5068Q90.8691-95.752 87.8906-95.752Q83.2031-95.752 80.0781-92.5537Q76.9531-89.3555 76.9531-84.668L76.9531-64.9414L75.9766-64.9414Q61.0352-64.9414 49.6826-60.2539Q38.3301-55.5664 30.6396-46.5576Q22.9492-37.5488 19.043-24.6094Q15.1367-11.6699 15.1367 4.78516Q15.1367 14.5996 17.9199 19.4824Q20.7031 24.3652 25.6836 24.3652Q29.1016 24.3652 31.8604 22.7295Q34.6191 21.0938 36.8652 16.7969Q40.6738 9.81445 45.9229 4.90723Q51.1719 0 58.4961-2.56348Q65.8203-5.12695 75.9766-5.12695L76.9531-5.12695L76.9531 14.4043Q76.9531 19.043 80.0781 22.168Q83.2031 25.293 87.8418 25.293Z"/>
  </g>
  <g id="Bold-L" transform="matrix(1 0 0 1 2259.58 1556)">
   <path d="M87.9395 24.0723Q90.6738 24.0723 93.0176 22.9492Q95.3613 21.8262 97.9492 19.3848L147.998-27.2949Q149.951-29.1016 150.806-31.2256Q151.66-33.3496 151.66-35.2539Q151.66-37.2559 150.806-39.3066Q149.951-41.3574 148.047-43.2129L97.9492-89.6484Q95.1172-92.2852 92.8955-93.4326Q90.6738-94.5801 88.0371-94.5801Q83.8867-94.5801 81.2012-91.7725Q78.5156-88.9648 78.5156-84.8633L78.5156-63.4277L77.1973-63.4277Q61.7188-63.4277 50.0977-58.6426Q38.4766-53.8574 30.6641-44.6533Q22.8516-35.4492 18.9209-22.168Q14.9902-8.88672 14.9902 8.05664Q14.9902 15.7227 17.4316 19.6045Q19.873 23.4863 23.9258 23.4863Q26.8066 23.4863 29.2236 22.1191Q31.6406 20.752 33.6426 16.9922Q37.9395 8.88672 43.8721 3.61328Q49.8047-1.66016 57.959-4.19922Q66.1133-6.73828 77.1973-6.73828L78.5156-6.73828L78.5156 14.6484Q78.5156 18.6523 81.2012 21.3623Q83.8867 24.0723 87.9395 24.0723Z"/>
  </g>
  <g id="Semibold-L" transform="matrix(1 0 0 1 1963.34 1556)">
   <path d="M87.9883 23.1934Q90.5273 23.1934 92.6758 22.1436Q94.8242 21.0938 97.168 18.8965L147.07-27.7832Q149.023-29.5898 149.829-31.543Q150.635-33.4961 150.635-35.2539Q150.635-37.0605 149.829-38.9893Q149.023-40.918 147.119-42.7734L97.168-89.1602Q94.5801-91.5527 92.5537-92.6514Q90.5273-93.75 88.0859-93.75Q84.375-93.75 81.9824-91.2109Q79.5898-88.6719 79.5898-85.0098L79.5898-62.4023L77.9785-62.4023Q62.207-62.4023 50.3906-57.5439Q38.5742-52.6855 30.6641-43.335Q22.7539-33.9844 18.7988-20.4834Q14.8438-6.98242 14.8438 10.3027Q14.8438 16.5039 17.041 19.6777Q19.2383 22.8516 22.7051 22.8516Q25.1953 22.8516 27.3926 21.6797Q29.5898 20.5078 31.3965 17.0898Q36.0352 8.25195 42.4316 2.73438Q48.8281-2.7832 57.5684-5.29785Q66.3086-7.8125 77.9785-7.8125L79.5898-7.8125L79.5898 14.7949Q79.5898 18.4082 81.9824 20.8008Q84.375 23.1934 87.9883 23.1934Z"/>
  </g>
  <g id="Medium-L" transform="matrix(1 0 0 1 1666.97 1556)">
   <path d="M88.0859 22.5586Q90.3809 22.5586 92.4072 21.582Q94.4336 20.6055 96.582 18.5547L146.387-28.125Q148.34-29.9316 149.097-31.7871Q149.854-33.6426 149.854-35.2539Q149.854-36.9629 149.097-38.7695Q148.34-40.5762 146.436-42.4316L96.582-88.8184Q94.1895-91.0156 92.334-92.0654Q90.4785-93.1152 88.1348-93.1152Q84.7168-93.1152 82.5684-90.7959Q80.4199-88.4766 80.4199-85.1074L80.4199-61.6211L78.6133-61.6211Q62.5488-61.6211 50.5859-56.7139Q38.623-51.8066 30.6641-42.3584Q22.7051-32.9102 18.7256-19.2139Q14.7461-5.51758 14.7461 12.0117Q14.7461 17.0898 16.7725 19.7266Q18.7988 22.3633 21.7773 22.3633Q23.9746 22.3633 26.001 21.3623Q28.0273 20.3613 29.6875 17.1875Q34.5703 7.76367 41.333 2.0752Q48.0957-3.61328 57.2754-6.12793Q66.4551-8.64258 78.6133-8.64258L80.4199-8.64258L80.4199 14.8926Q80.4199 18.1641 82.5684 20.3613Q84.7168 22.5586 88.0859 22.5586Z"/>
  </g>
  <g id="Regular-L" transform="matrix(1 0 0 1 1370.69 1556)">
   <path d="M88.1348 21.7285Q90.2344 21.7285 92.0654 20.8252Q93.8965 19.9219 95.8496 18.0664L145.508-28.6133Q147.461-30.4199 148.145-32.1045Q148.828-33.7891 148.828-35.2539Q148.828-36.8164 148.145-38.4766Q147.461-40.1367 145.508-41.9922L95.8496-88.3301Q93.7012-90.332 92.0166-91.3086Q90.332-92.2852 88.2324-92.2852Q85.2051-92.2852 83.3496-90.2344Q81.4941-88.1836 81.4941-85.2539L81.4941-60.5957L79.4434-60.5957Q63.0371-60.5957 50.8789-55.6152Q38.7207-50.6348 30.6641-41.04Q22.6074-31.4453 18.6279-17.5293Q14.6484-3.61328 14.6484 14.209Q14.6484 17.8223 16.4307 19.7754Q18.2129 21.7285 20.5566 21.7285Q22.4121 21.7285 24.2188 20.9229Q26.0254 20.1172 27.4902 17.334Q32.7148 7.12891 39.9414 1.19629Q47.168-4.73633 56.9092-7.22656Q66.6504-9.7168 79.4434-9.7168L81.4941-9.7168L81.4941 15.0391Q81.4941 17.9199 83.3496 19.8242Q85.2051 21.7285 88.1348 21.7285Z"/>
  </g>
  <g id="Light-L" transform="matrix(1 0 0 1 1075.13 1556)">
   <path d="M86.7188 20.7031Q88.5254 20.7031 90.0635 19.8975Q91.6016 19.0918 93.1641 17.627L142.676-28.7109Q144.824-30.7129 145.483-32.2998Q146.143-33.8867 146.143-35.2539Q146.143-36.7188 145.483-38.2812Q144.824-39.8438 142.676-41.8457L93.1641-87.9883Q91.5039-89.5508 90.0391-90.3809Q88.5742-91.2109 86.7676-91.2109Q84.1309-91.2109 82.6172-89.4531Q81.1035-87.6953 81.1035-85.2051L81.1035-59.375L78.7109-59.375Q63.1348-59.375 51.1475-54.7363Q39.1602-50.0977 30.9326-40.8447Q22.7051-31.5918 18.5059-17.7734Q14.3066-3.95508 14.3066 14.3555Q14.3066 17.334 15.7959 19.0186Q17.2852 20.7031 19.3848 20.7031Q21.0449 20.7031 22.5342 19.8975Q24.0234 19.0918 25.2441 16.6504Q30.0781 6.54297 37.3779 0.512695Q44.6777-5.51758 54.8828-8.1543Q65.0879-10.791 78.7109-10.791L81.1035-10.791L81.1035 14.8926Q81.1035 17.334 82.6172 19.0186Q84.1309 20.7031 86.7188 20.7031Z"/>
  </g>
  <g id="Thin-L" transform="matrix(1 0 0 1 779.933 1556)">
   <path d="M84.8145 19.2871Q86.2305 19.2871 87.4023 18.6279Q88.5742 17.9688 89.6484 16.9922L138.965-28.8574Q141.357-31.1035 141.992-32.5439Q142.627-33.9844 142.627-35.2539Q142.627-36.5723 141.992-38.0127Q141.357-39.4531 138.965-41.6992L89.6484-87.5Q88.5742-88.5254 87.4023-89.1846Q86.2305-89.8438 84.7656-89.8438Q82.7148-89.8438 81.6406-88.4766Q80.5664-87.1094 80.5664-85.1562L80.5664-57.7637L77.7832-57.7637Q63.2812-57.7637 51.5137-53.54Q39.7461-49.3164 31.2988-40.5273Q22.8516-31.7383 18.335-18.0908Q13.8184-4.44336 13.8184 14.502Q13.8184 16.748 14.9658 18.0176Q16.1133 19.2871 17.7734 19.2871Q19.2871 19.2871 20.3369 18.5059Q21.3867 17.7246 22.2656 15.7227Q26.5625 5.71289 33.96-0.439453Q41.3574-6.5918 52.2217-9.39941Q63.0859-12.207 77.7832-12.207L80.5664-12.207L80.5664 14.6484Q80.5664 16.6016 81.6406 17.9443Q82.7148 19.2871 84.8145 19.2871Z"/>
  </g>
  <g id="Ultralight-L" transform="matrix(1 0 0 1 484.003 1556)">
   <path d="M83.8379 18.6035Q85.0586 18.6035 86.0596 18.0176Q87.0605 17.4316 87.793 16.6992L137.061-28.9551Q139.551-31.2988 140.186-32.666Q140.82-34.0332 140.82-35.2539Q140.82-36.4746 140.21-37.8418Q139.6-39.209 137.061-41.6016L87.793-87.3047Q87.0605-87.9883 86.0352-88.5498Q85.0098-89.1113 83.7891-89.1113Q81.9824-89.1113 81.1279-87.9395Q80.2734-86.7676 80.2734-85.1074L80.2734-56.9336L77.2949-56.9336Q63.3789-56.9336 51.709-52.9541Q40.0391-48.9746 31.4941-40.4053Q22.9492-31.8359 18.2617-18.2373Q13.5742-4.63867 13.5742 14.5996Q13.5742 16.4062 14.5264 17.5049Q15.4785 18.6035 16.9922 18.6035Q18.3594 18.6035 19.1895 17.8223Q20.0195 17.041 20.7031 15.2344Q24.7559 5.32227 32.2266-0.90332Q39.6973-7.12891 50.8545-10.0342Q62.0117-12.9395 77.2949-12.9395L80.2734-12.9395L80.2734 14.5508Q80.2734 16.2109 81.1279 17.4072Q81.9824 18.6035 83.8379 18.6035Z"/>
  </g>
  <g id="Black-M" transform="matrix(1 0 0 1 2870 1126)">
   <path d="M67.4316 13.0859Q70.2148 13.0859 72.5098 11.9873Q74.8047 10.8887 77.4414 8.44727L116.65-27.5879Q118.213-29.0527 119.067-31.1768Q119.922-33.3008 119.922-35.2051Q119.922-37.2559 119.092-39.2822Q118.262-41.3086 116.699-42.7734L77.4414-78.8086Q74.6094-81.3965 72.3389-82.4463Q70.0684-83.4961 67.4316-83.4961Q63.0859-83.4961 60.1318-80.542Q57.1777-77.5879 57.1777-73.2422L57.1777-60.0098L56.8848-60.0098Q46.2891-60.0098 37.9639-56.6406Q29.6387-53.2715 23.8037-46.7285Q17.9688-40.1855 14.917-30.6641Q11.8652-21.1426 11.8652-8.88672Q11.8652 1.61133 14.4287 6.78711Q16.9922 11.9629 22.0703 11.9629Q25.4883 11.9629 27.9785 10.2783Q30.4688 8.59375 32.5195 4.54102Q34.6191 0.830078 37.7197-2.49023Q40.8203-5.81055 45.459-7.88574Q50.0977-9.96094 56.8848-9.96094L57.1777-9.96094L57.1777 2.88086Q57.1777 7.17773 60.1318 10.1318Q63.0859 13.0859 67.4316 13.0859Z"/>
  </g>
  <g id="Heavy-M" transform="matrix(1 0 0 1 2573.63 1126)">
   <path d="M67.8223 12.2559Q70.3613 12.2559 72.4854 11.2305Q74.6094 10.2051 77.0508 7.95898L116.113-28.1738Q117.627-29.5898 118.408-31.543Q119.189-33.4961 119.189-35.2051Q119.189-37.0605 118.433-38.9404Q117.676-40.8203 116.162-42.2363L77.0508-78.2715Q74.4141-80.7129 72.3389-81.6895Q70.2637-82.666 67.8711-82.666Q63.916-82.666 61.2793-80.0049Q58.6426-77.3438 58.6426-73.4375L58.6426-58.9844L58.1055-58.9844Q46.875-58.9844 38.2568-55.4443Q29.6387-51.9043 23.7549-45.0928Q17.8711-38.2812 14.8438-28.4668Q11.8164-18.6523 11.8164-6.10352Q11.8164 2.68555 14.1357 7.03125Q16.4551 11.377 20.8008 11.377Q23.7793 11.377 26.0498 9.93652Q28.3203 8.49609 30.1758 4.88281Q32.7637 0.146484 36.4502-3.4668Q40.1367-7.08008 45.4102-9.10645Q50.6836-11.1328 58.1055-11.1328L58.6426-11.1328L58.6426 3.07617Q58.6426 6.98242 61.2793 9.61914Q63.916 12.2559 67.8223 12.2559Z"/>
  </g>
  <g id="Bold-M" transform="matrix(1 0 0 1 2277.28 1126)">
   <path d="M68.3105 11.3281Q70.5566 11.3281 72.5098 10.4004Q74.4629 9.47266 76.6602 7.42188L115.527-28.8086Q116.992-30.2246 117.7-31.958Q118.408-33.6914 118.408-35.2539Q118.408-36.8652 117.725-38.5742Q117.041-40.2832 115.527-41.6504L76.6602-77.6855Q74.2676-79.9316 72.4121-80.8594Q70.5566-81.7871 68.3594-81.7871Q64.8926-81.7871 62.5977-79.4189Q60.3027-77.0508 60.3027-73.6816L60.3027-57.8125L59.4238-57.8125Q47.5586-57.8125 38.623-54.1016Q29.6875-50.3906 23.7061-43.2861Q17.7246-36.1816 14.7217-26.0254Q11.7188-15.8691 11.7188-2.97852Q11.7188 3.90625 13.7695 7.32422Q15.8203 10.7422 19.3359 10.7422Q21.8262 10.7422 23.877 9.59473Q25.9277 8.44727 27.5879 5.22461Q30.7617-0.634766 35.083-4.56543Q39.4043-8.49609 45.3613-10.4492Q51.3184-12.4023 59.4238-12.4023L60.3027-12.4023L60.3027 3.36914Q60.3027 6.73828 62.5977 9.0332Q64.8926 11.3281 68.3105 11.3281Z"/>
  </g>
  <g id="Semibold-M" transform="matrix(1 0 0 1 1980.84 1126)">
   <path d="M68.6035 10.6445Q70.7031 10.6445 72.5098 9.79004Q74.3164 8.93555 76.3184 7.03125L115.088-29.248Q116.553-30.6152 117.188-32.2266Q117.822-33.8379 117.822-35.2539Q117.822-36.7188 117.188-38.3057Q116.553-39.8926 115.088-41.2598L76.3184-77.2949Q74.1211-79.3457 72.4121-80.249Q70.7031-81.1523 68.6523-81.1523Q65.5273-81.1523 63.4766-79.0039Q61.4258-76.8555 61.4258-73.8281L61.4258-57.0312L60.3516-57.0312Q47.998-57.0312 38.8428-53.1982Q29.6875-49.3652 23.6572-42.041Q17.627-34.7168 14.6484-24.3164Q11.6699-13.916 11.6699-0.78125Q11.6699 4.6875 13.5254 7.49512Q15.3809 10.3027 18.3594 10.3027Q20.5078 10.3027 22.3633 9.32617Q24.2188 8.34961 25.7812 5.46875Q29.3457-1.17188 34.1064-5.29785Q38.8672-9.42383 45.3125-11.3525Q51.7578-13.2812 60.3516-13.2812L61.4258-13.2812L61.4258 3.51562Q61.4258 6.5918 63.4766 8.61816Q65.5273 10.6445 68.6035 10.6445Z"/>
  </g>
  <g id="Medium-M" transform="matrix(1 0 0 1 1684.32 1126)">
   <path d="M68.8477 10.1562Q70.752 10.1562 72.4854 9.35059Q74.2188 8.54492 76.123 6.73828L114.746-29.5898Q116.211-30.957 116.797-32.4463Q117.383-33.9355 117.383-35.2539Q117.383-36.6211 116.797-38.1104Q116.211-39.5996 114.795-40.918L76.123-76.9531Q74.0234-78.9551 72.4365-79.8096Q70.8496-80.6641 68.8965-80.6641Q66.0156-80.6641 64.1357-78.6865Q62.2559-76.709 62.2559-73.9258L62.2559-56.3965L61.0352-56.3965Q48.3887-56.3965 39.0625-52.4658Q29.7363-48.5352 23.6572-41.0889Q17.5781-33.6426 14.5996-23.0469Q11.6211-12.4512 11.6211 0.830078Q11.6211 5.32227 13.3545 7.6416Q15.0879 9.96094 17.5781 9.96094Q19.4824 9.96094 21.2402 9.13086Q22.998 8.30078 24.4141 5.66406Q28.2715-1.5625 33.374-5.85938Q38.4766-10.1562 45.2881-12.0605Q52.0996-13.9648 61.0352-13.9648L62.2559-13.9648L62.2559 3.66211Q62.2559 6.44531 64.1357 8.30078Q66.0156 10.1562 68.8477 10.1562Z"/>
  </g>
  <g id="Regular-M" transform="matrix(1 0 0 1 1387.86 1126)">
   <path d="M69.1406 9.52148Q70.8984 9.52148 72.4854 8.76465Q74.0723 8.00781 75.8301 6.34766L114.355-30.0293Q115.771-31.3477 116.309-32.7148Q116.846-34.082 116.846-35.2539Q116.846-36.4746 116.309-37.8418Q115.771-39.209 114.355-40.5273L75.8301-76.5625Q73.877-78.418 72.4365-79.2236Q70.9961-80.0293 69.2383-80.0293Q66.6504-80.0293 65.0146-78.2715Q63.3789-76.5137 63.3789-74.0723L63.3789-55.6152L61.9629-55.6152Q48.8281-55.6152 39.2822-51.5625Q29.7363-47.5098 23.6084-39.8438Q17.4805-32.1777 14.5264-21.3623Q11.5723-10.5469 11.5723 2.97852Q11.5723 6.15234 13.1104 7.83691Q14.6484 9.52148 16.6016 9.52148Q18.1641 9.52148 19.751 8.88672Q21.3379 8.25195 22.6074 5.9082Q26.8555-2.09961 32.4219-6.61621Q37.9883-11.1328 45.2637-12.9883Q52.5391-14.8438 61.9629-14.8438L63.3789-14.8438L63.3789 3.80859Q63.3789 6.29883 65.0146 7.91016Q66.6504 9.52148 69.1406 9.52148Z"/>
  </g>
  <g id="Light-M" transform="matrix(1 0 0 1 1092.17 1126)">
   <path d="M67.8223 8.59375Q69.3359 8.59375 70.6787 7.93457Q72.0215 7.27539 73.4375 5.95703L111.865-30.127Q113.428-31.5918 113.94-32.8613Q114.453-34.1309 114.453-35.2539Q114.453-36.377 113.94-37.6465Q113.428-38.916 111.865-40.4297L73.4375-76.2207Q71.875-77.6855 70.6543-78.3936Q69.4336-79.1016 67.9199-79.1016Q65.6738-79.1016 64.3555-77.6123Q63.0371-76.123 63.0371-74.0234L63.0371-54.4922L61.3281-54.4922Q48.9258-54.4922 39.5264-50.7324Q30.127-46.9727 23.8525-39.6484Q17.5781-32.3242 14.4043-21.582Q11.2305-10.8398 11.2305 3.125Q11.2305 5.71289 12.5244 7.15332Q13.8184 8.59375 15.5273 8.59375Q16.9434 8.59375 18.2373 7.95898Q19.5312 7.32422 20.5566 5.27344Q24.5117-2.63672 30.127-7.25098Q35.7422-11.8652 43.4326-13.8428Q51.123-15.8203 61.3281-15.8203L63.0371-15.8203L63.0371 3.66211Q63.0371 5.76172 64.3555 7.17773Q65.6738 8.59375 67.8223 8.59375Z"/>
  </g>
  <g id="Thin-M" transform="matrix(1 0 0 1 796.827 1126)">
   <path d="M66.1133 7.32422Q67.334 7.32422 68.335 6.78711Q69.3359 6.25 70.2637 5.41992L108.496-30.2734Q110.303-31.9336 110.791-33.0811Q111.279-34.2285 111.279-35.2539Q111.279-36.2793 110.791-37.4268Q110.303-38.5742 108.496-40.2344L70.2637-75.8301Q69.2871-76.7578 68.3105-77.2949Q67.334-77.832 66.1621-77.832Q64.4043-77.832 63.4766-76.709Q62.5488-75.5859 62.5488-73.9258L62.5488-53.0273L60.498-53.0273Q49.0234-53.0273 39.8438-49.6826Q30.6641-46.3379 24.1699-39.4043Q17.6758-32.4707 14.2334-21.8506Q10.791-11.2305 10.791 3.27148Q10.791 5.17578 11.7676 6.25Q12.7441 7.32422 14.1602 7.32422Q15.332 7.32422 16.2354 6.71387Q17.1387 6.10352 17.9199 4.44336Q21.3867-3.32031 27.0752-8.05664Q32.7637-12.793 41.04-14.9414Q49.3164-17.0898 60.498-17.0898L62.5488-17.0898L62.5488 3.4668Q62.5488 5.12695 63.501 6.22559Q64.4531 7.32422 66.1133 7.32422Z"/>
  </g>
  <g id="Ultralight-M" transform="matrix(1 0 0 1 500.8 1126)">
   <path d="M65.2344 6.68945Q66.2598 6.68945 67.0898 6.22559Q67.9199 5.76172 68.6035 5.12695L106.836-30.3711Q108.691-32.1289 109.18-33.2031Q109.668-34.2773 109.668-35.2539Q109.668-36.2305 109.204-37.3047Q108.74-38.3789 106.836-40.1855L68.6035-75.5859Q67.9199-76.2695 67.0898-76.7334Q66.2598-77.1973 65.2344-77.1973Q63.7207-77.1973 63.0127-76.2451Q62.3047-75.293 62.3047-73.877L62.3047-52.2461L60.0586-52.2461Q49.1211-52.2461 40.0146-49.0967Q30.9082-45.9473 24.3408-39.2578Q17.7734-32.5684 14.1846-22.0215Q10.5957-11.4746 10.5957 3.36914Q10.5957 4.88281 11.4014 5.78613Q12.207 6.68945 13.4277 6.68945Q14.5508 6.68945 15.2344 6.0791Q15.918 5.46875 16.5039 4.05273Q19.7754-3.71094 25.5127-8.49609Q31.25-13.2812 39.7949-15.5273Q48.3398-17.7734 60.0586-17.7734L62.3047-17.7734L62.3047 3.36914Q62.3047 4.73633 63.0371 5.71289Q63.7695 6.68945 65.2344 6.68945Z"/>
  </g>
  <g id="Black-S" transform="matrix(1 0 0 1 2883.69 696)">
   <path d="M52.6367 2.83203Q54.8828 2.83203 56.7139 1.95312Q58.5449 1.07422 60.6445-0.878906L91.4062-29.0527Q92.6758-30.2246 93.3594-31.958Q94.043-33.6914 94.043-35.2051Q94.043-36.8652 93.3838-38.501Q92.7246-40.1367 91.4551-41.3086L60.6445-69.5312Q58.3984-71.582 56.5674-72.4121Q54.7363-73.2422 52.6367-73.2422Q49.1211-73.2422 46.7285-70.8496Q44.3359-68.457 44.3359-64.9414L44.3359-54.8828L44.1406-54.8828Q33.4473-54.8828 25.6104-50.3418Q17.7734-45.8008 13.5254-36.9873Q9.27734-28.1738 9.27734-15.4297Q9.27734-6.73828 11.377-2.44141Q13.4766 1.85547 17.627 1.85547Q20.4102 1.85547 22.4121 0.463867Q24.4141-0.927734 26.0742-4.19922Q27.5391-6.78711 29.7852-9.30176Q32.0312-11.8164 35.5225-13.4766Q39.0137-15.1367 44.1406-15.1367L44.3359-15.1367L44.3359-5.46875Q44.3359-1.95312 46.7285 0.439453Q49.1211 2.83203 52.6367 2.83203Z"/>
  </g>
  <g id="Heavy-S" transform="matrix(1 0 0 1 2587.13 696)">
   <path d="M53.125 2.24609Q55.2246 2.24609 56.9336 1.41602Q58.6426 0.585938 60.6445-1.26953L91.2598-29.541Q92.4805-30.6641 93.0908-32.251Q93.7012-33.8379 93.7012-35.2051Q93.7012-36.7188 93.1152-38.2324Q92.5293-39.7461 91.3086-40.8691L60.6445-69.1406Q58.4961-71.0449 56.8115-71.8506Q55.127-72.6562 53.1738-72.6562Q49.9512-72.6562 47.8027-70.4834Q45.6543-68.3105 45.6543-65.1367L45.6543-54.1504L45.2637-54.1504Q33.7402-54.1504 25.6836-49.292Q17.627-44.4336 13.4521-35.2539Q9.27734-26.0742 9.27734-13.0371Q9.27734-5.76172 11.1816-2.14844Q13.0859 1.46484 16.6504 1.46484Q19.0918 1.46484 20.9473 0.292969Q22.8027-0.878906 24.3164-3.85742Q26.2695-7.32422 29.0039-10.0586Q31.7383-12.793 35.7178-14.4043Q39.6973-16.0156 45.2637-16.0156L45.6543-16.0156L45.6543-5.27344Q45.6543-2.05078 47.8027 0.0976562Q49.9512 2.24609 53.125 2.24609Z"/>
  </g>
  <g id="Bold-S" transform="matrix(1 0 0 1 2290.59 696)">
   <path d="M53.7109 1.5625Q55.6152 1.5625 57.2021 0.805664Q58.7891 0.0488281 60.5957-1.66016L91.1133-30.0781Q92.2852-31.1523 92.8223-32.5684Q93.3594-33.9844 93.3594-35.2539Q93.3594-36.5723 92.8223-37.9395Q92.2852-39.3066 91.1621-40.3809L60.5957-68.6523Q58.6426-70.5078 57.1045-71.2646Q55.5664-72.0215 53.7598-72.0215Q50.9277-72.0215 49.0234-70.0684Q47.1191-68.1152 47.1191-65.332L47.1191-53.3203L46.5332-53.3203Q34.082-53.3203 25.7812-48.1445Q17.4805-42.9688 13.3789-33.3252Q9.27734-23.6816 9.27734-10.4004Q9.27734-4.6875 10.9863-1.80664Q12.6953 1.07422 15.5762 1.07422Q17.627 1.07422 19.3115 0.12207Q20.9961-0.830078 22.4121-3.4668Q24.8535-7.91016 28.1494-10.9131Q31.4453-13.916 35.9375-15.4541Q40.4297-16.9922 46.5332-16.9922L47.1191-16.9922L47.1191-5.0293Q47.1191-2.19727 49.0234-0.317383Q50.9277 1.5625 53.7109 1.5625Z"/>
  </g>
  <g id="Semibold-S" transform="matrix(1 0 0 1 1994 696)">
   <path d="M54.1016 1.12305Q55.8594 1.12305 57.373 0.390625Q58.8867-0.341797 60.5957-1.95312L91.0156-30.4688Q92.0898-31.4941 92.6025-32.7881Q93.1152-34.082 93.1152-35.2539Q93.1152-36.4746 92.627-37.7441Q92.1387-39.0137 91.0156-40.0391L60.5957-68.3105Q58.6914-70.0684 57.2754-70.8252Q55.8594-71.582 54.1504-71.582Q51.5625-71.582 49.8291-69.7754Q48.0957-67.9688 48.0957-65.4297L48.0957-52.7344L47.3633-52.7344Q34.2773-52.7344 25.8301-47.3145Q17.3828-41.8945 13.3057-31.9824Q9.22852-22.0703 9.22852-8.59375Q9.22852-3.95508 10.791-1.58691Q12.3535 0.78125 14.8438 0.78125Q16.6016 0.78125 18.1885 0Q19.7754-0.78125 21.0449-3.17383Q23.877-8.30078 27.5391-11.499Q31.2012-14.6973 36.084-16.1621Q40.9668-17.627 47.3633-17.627L48.0957-17.627L48.0957-4.83398Q48.0957-2.29492 49.8291-0.585938Q51.5625 1.12305 54.1016 1.12305Z"/>
  </g>
  <g id="Medium-S" transform="matrix(1 0 0 1 1697.39 696)">
   <path d="M54.3945 0.732422Q56.0547 0.732422 57.4951 0.0488281Q58.9355-0.634766 60.5469-2.14844L90.918-30.7129Q91.9922-31.7383 92.4561-32.959Q92.9199-34.1797 92.9199-35.2539Q92.9199-36.377 92.4561-37.5732Q91.9922-38.7695 90.918-39.7949L60.5469-68.0664Q58.7402-69.7754 57.4219-70.5078Q56.1035-71.2402 54.4922-71.2402Q52.0508-71.2402 50.4639-69.5801Q48.877-67.9199 48.877-65.5273L48.877-52.2949L48.0469-52.2949Q34.4727-52.2949 25.8789-46.7041Q17.2852-41.1133 13.2568-30.957Q9.22852-20.8008 9.22852-7.17773Q9.22852-3.36914 10.6934-1.3916Q12.1582 0.585938 14.2578 0.585938Q15.8203 0.585938 17.3096-0.0976562Q18.7988-0.78125 20.0195-2.97852Q23.1445-8.59375 27.0752-11.9385Q31.0059-15.2832 36.1816-16.7236Q41.3574-18.1641 48.0469-18.1641L48.877-18.1641L48.877-4.6875Q48.877-2.34375 50.4639-0.805664Q52.0508 0.732422 54.3945 0.732422Z"/>
  </g>
  <g id="Regular-S" transform="matrix(1 0 0 1 1400.8 696)">
   <path d="M54.7852 0.292969Q56.2988 0.292969 57.666-0.366211Q59.0332-1.02539 60.5469-2.44141L90.8203-31.1035Q91.8457-32.0801 92.2607-33.1787Q92.6758-34.2773 92.6758-35.2539Q92.6758-36.2793 92.2607-37.3779Q91.8457-38.4766 90.8203-39.4531L60.5469-67.7734Q58.8379-69.3848 57.6172-70.0928Q56.3965-70.8008 54.8828-70.8008Q52.6855-70.8008 51.2695-69.2871Q49.8535-67.7734 49.8535-65.6738L49.8535-51.709L48.877-51.709Q34.668-51.709 25.9277-45.8984Q17.1875-40.0879 13.208-29.6387Q9.22852-19.1895 9.22852-5.37109Q9.22852-2.63672 10.5469-1.17188Q11.8652 0.292969 13.5254 0.292969Q14.7949 0.292969 16.1865-0.219727Q17.5781-0.732422 18.7012-2.68555Q22.168-8.98438 26.4893-12.5Q30.8105-16.0156 36.3281-17.4072Q41.8457-18.7988 48.877-18.7988L49.8535-18.7988L49.8535-4.54102Q49.8535-2.44141 51.2695-1.07422Q52.6855 0.292969 54.7852 0.292969Z"/>
  </g>
  <g id="Light-S" transform="matrix(1 0 0 1 1104.99 696)">
   <path d="M53.6133-0.537109Q54.9316-0.537109 56.0791-1.09863Q57.2266-1.66016 58.4473-2.83203L88.5742-31.2012Q89.7461-32.3242 90.1611-33.3252Q90.5762-34.3262 90.5762-35.2539Q90.5762-36.1816 90.1855-37.207Q89.7949-38.2324 88.5742-39.3555L58.4473-67.4805Q57.0801-68.75 56.0303-69.3604Q54.9805-69.9707 53.7109-69.9707Q51.8555-69.9707 50.6836-68.7012Q49.5117-67.4316 49.5117-65.625L49.5117-50.7324L48.291-50.7324Q34.9609-50.7324 26.2207-45.3613Q17.4805-39.9902 13.208-29.7852Q8.93555-19.5801 8.93555-5.27344Q8.93555-2.97852 10.0342-1.75781Q11.1328-0.537109 12.5977-0.537109Q13.7207-0.537109 14.8438-1.0498Q15.9668-1.5625 16.8945-3.22266Q20.0684-9.47266 24.4629-13.0615Q28.8574-16.6504 34.7412-18.1396Q40.625-19.6289 48.291-19.6289L49.5117-19.6289L49.5117-4.6875Q49.5117-2.88086 50.6836-1.70898Q51.8555-0.537109 53.6133-0.537109Z"/>
  </g>
  <g id="Thin-S" transform="matrix(1 0 0 1 809.474 696)">
   <path d="M52.0996-1.66016Q53.125-1.66016 53.9795-2.09961Q54.834-2.53906 55.6152-3.32031L85.6445-31.2988Q87.0117-32.6172 87.4023-33.5205Q87.793-34.4238 87.793-35.2539Q87.793-36.084 87.4023-36.9873Q87.0117-37.8906 85.6445-39.209L55.6152-67.1387Q54.7363-67.9199 53.9307-68.3838Q53.125-68.8477 52.1484-68.8477Q50.7324-68.8477 49.9268-67.8955Q49.1211-66.9434 49.1211-65.5762L49.1211-49.4629L47.5586-49.4629Q35.3516-49.4629 26.6113-44.6289Q17.8711-39.7949 13.208-29.9561Q8.54492-20.1172 8.54492-5.07812Q8.54492-3.4668 9.35059-2.56348Q10.1562-1.66016 11.3281-1.66016Q12.3047-1.66016 13.0859-2.14844Q13.8672-2.63672 14.502-4.00391Q17.334-10.1074 21.7773-13.7939Q26.2207-17.4805 32.6172-19.1162Q39.0137-20.752 47.5586-20.752L49.1211-20.752L49.1211-4.83398Q49.1211-3.51562 49.9268-2.58789Q50.7324-1.66016 52.0996-1.66016Z"/>
  </g>
  <g id="Ultralight-S" transform="matrix(1 0 0 1 513.398 696)">
   <path d="M51.3184-2.19727Q52.1973-2.19727 52.8809-2.58789Q53.5645-2.97852 54.1992-3.56445L84.1309-31.3965Q85.5957-32.7637 85.9863-33.6182Q86.377-34.4727 86.377-35.2539Q86.377-36.0352 86.0107-36.8896Q85.6445-37.7441 84.1309-39.1113L54.1992-66.9434Q53.5645-67.5293 52.8809-67.9199Q52.1973-68.3105 51.3184-68.3105Q50.1465-68.3105 49.5117-67.5049Q48.877-66.6992 48.877-65.5273L48.877-48.7793L47.168-48.7793Q35.5469-48.7793 26.8066-44.2627Q18.0664-39.7461 13.208-30.0781Q8.34961-20.4102 8.34961-5.0293Q8.34961-3.71094 9.00879-2.9541Q9.66797-2.19727 10.6934-2.19727Q11.5723-2.19727 12.1826-2.68555Q12.793-3.17383 13.2812-4.3457Q15.918-10.4492 20.4102-14.1846Q24.9023-17.9199 31.543-19.6289Q38.1836-21.3379 47.168-21.3379L48.877-21.3379L48.877-4.93164Q48.877-3.80859 49.5117-3.00293Q50.1465-2.19727 51.3184-2.19727Z"/>
  </g>
 </g>
</svg>
